# Blender v2.90.0 OBJ File: 'untitled.blend'
# www.blender.org
mtllib enemytypeDbehit.mtl
o 立方體_立方體.009
v 4.000000 -0.000001 -4.000000
v 4.000000 3.999999 -4.000001
v 4.000000 4.000000 3.999999
v 4.000000 0.000001 4.000000
v -4.000000 4.000000 4.000000
v -4.000000 0.000001 4.000000
v -4.000000 3.999999 -4.000000
v -4.000000 -0.000001 -4.000000
vt 0.375000 0.000000
vt 0.625000 0.000000
vt 0.625000 0.250000
vt 0.375000 0.250000
vt 0.625000 0.500000
vt 0.375000 0.500000
vt 0.625000 0.750000
vt 0.375000 0.750000
vt 0.625000 1.000000
vt 0.375000 1.000000
vt 0.125000 0.500000
vt 0.125000 0.750000
vt 0.875000 0.500000
vt 0.875000 0.750000
vn 1.0000 -0.0000 -0.0000
vn 0.0000 0.0000 1.0000
vn -1.0000 0.0000 0.0000
vn -0.0000 -0.0000 -1.0000
vn 0.0000 -1.0000 0.0000
vn -0.0000 1.0000 -0.0000
usemtl 材質.019
s 1
f 1/1/1 2/2/1 3/3/1 4/4/1
f 4/4/2 3/3/2 5/5/2 6/6/2
f 6/6/3 5/5/3 7/7/3 8/8/3
f 8/8/4 7/7/4 2/9/4 1/10/4
f 4/11/5 6/6/5 8/8/5 1/12/5
f 5/5/6 3/13/6 2/14/6 7/7/6
o 圓柱體_圓柱體.001
v 2.000000 6.000000 -4.000001
v 2.000000 6.000000 3.999999
v 1.961571 5.609819 3.999999
v 1.961570 5.609818 -4.000001
v 1.847759 5.234633 3.999999
v 1.847759 5.234632 -4.000001
v 1.662939 4.888859 3.999999
v 1.662939 4.888860 -4.000001
v 1.414214 4.585786 3.999999
v 1.414213 4.585786 -4.000001
v 1.111140 4.337060 3.999999
v 1.111140 4.337060 -4.000001
v 0.765367 4.152242 3.999999
v 0.765367 4.152241 -4.000001
v 0.390181 4.038429 3.999999
v 0.390181 4.038430 -4.000000
v 0.000000 4.000000 3.999999
v -0.000000 3.999999 -4.000000
v -0.390180 4.038429 3.999999
v -0.390181 4.038428 -4.000000
v -0.765366 4.152242 3.999999
v -0.765367 4.152241 -4.000000
v -1.111140 4.337060 3.999999
v -1.111140 4.337060 -4.000000
v -1.414213 4.585786 3.999999
v -1.414214 4.585786 -4.000000
v -1.662939 4.888861 3.999999
v -1.662939 4.888860 -4.000000
v -1.847759 5.234633 3.999999
v -1.847759 5.234632 -4.000000
v -1.961571 5.609819 3.999999
v -1.961571 5.609819 -4.000001
v -2.000000 6.000000 3.999999
v -2.000000 6.000000 -4.000001
v -1.961570 6.390182 3.999999
v -1.961571 6.390182 -4.000001
v -1.847759 6.765368 3.999999
v -1.847759 6.765368 -4.000001
v -1.662938 7.111142 3.999999
v -1.662939 7.111142 -4.000001
v -1.414213 7.414215 3.999999
v -1.414213 7.414215 -4.000001
v -1.111139 7.662941 3.999999
v -1.111139 7.662940 -4.000001
v -0.765365 7.847761 3.999999
v -0.765366 7.847760 -4.000001
v -0.390179 7.961572 3.999999
v -0.390179 7.961571 -4.000001
v 0.000002 8.000001 3.999999
v 0.000002 8.000000 -4.000001
v 0.390183 7.961570 3.999999
v 0.390183 7.961569 -4.000001
v 0.765369 7.847758 3.999999
v 0.765369 7.847757 -4.000001
v 1.111143 7.662939 3.999999
v 1.111142 7.662938 -4.000001
v 1.414215 7.414213 3.999999
v 1.414215 7.414212 -4.000001
v 1.662941 7.111138 3.999999
v 1.662941 7.111137 -4.000001
v 1.847760 6.765365 3.999999
v 1.847760 6.765364 -4.000001
v 1.961571 6.390177 3.999999
v 1.961571 6.390178 -4.000001
vt 1.000000 0.500000
vt 1.000000 1.000000
vt 0.968750 1.000000
vt 0.968750 0.500000
vt 0.937500 1.000000
vt 0.937500 0.500000
vt 0.906250 1.000000
vt 0.906250 0.500000
vt 0.875000 1.000000
vt 0.875000 0.500000
vt 0.843750 1.000000
vt 0.843750 0.500000
vt 0.812500 1.000000
vt 0.812500 0.500000
vt 0.781250 1.000000
vt 0.781250 0.500000
vt 0.750000 1.000000
vt 0.750000 0.500000
vt 0.718750 1.000000
vt 0.718750 0.500000
vt 0.687500 1.000000
vt 0.687500 0.500000
vt 0.656250 1.000000
vt 0.656250 0.500000
vt 0.625000 1.000000
vt 0.625000 0.500000
vt 0.593750 1.000000
vt 0.593750 0.500000
vt 0.562500 1.000000
vt 0.562500 0.500000
vt 0.531250 1.000000
vt 0.531250 0.500000
vt 0.500000 1.000000
vt 0.500000 0.500000
vt 0.468750 1.000000
vt 0.468750 0.500000
vt 0.437500 1.000000
vt 0.437500 0.500000
vt 0.406250 1.000000
vt 0.406250 0.500000
vt 0.375000 1.000000
vt 0.375000 0.500000
vt 0.343750 1.000000
vt 0.343750 0.500000
vt 0.312500 1.000000
vt 0.312500 0.500000
vt 0.281250 1.000000
vt 0.281250 0.500000
vt 0.250000 1.000000
vt 0.250000 0.500000
vt 0.218750 1.000000
vt 0.218750 0.500000
vt 0.187500 1.000000
vt 0.187500 0.500000
vt 0.156250 1.000000
vt 0.156250 0.500000
vt 0.125000 1.000000
vt 0.125000 0.500000
vt 0.093750 1.000000
vt 0.093750 0.500000
vt 0.062500 1.000000
vt 0.062500 0.500000
vt 0.296822 0.485388
vt 0.250000 0.490000
vt 0.203179 0.485389
vt 0.158156 0.471731
vt 0.116663 0.449553
vt 0.080295 0.419706
vt 0.050447 0.383337
vt 0.028269 0.341844
vt 0.014612 0.296822
vt 0.010000 0.250000
vt 0.014611 0.203179
vt 0.028269 0.158156
vt 0.050447 0.116663
vt 0.080294 0.080294
vt 0.116663 0.050447
vt 0.158156 0.028269
vt 0.203178 0.014612
vt 0.250000 0.010000
vt 0.296822 0.014612
vt 0.341844 0.028269
vt 0.383337 0.050447
vt 0.419706 0.080294
vt 0.449553 0.116663
vt 0.471731 0.158156
vt 0.485388 0.203178
vt 0.490000 0.250000
vt 0.485388 0.296822
vt 0.471731 0.341844
vt 0.449553 0.383337
vt 0.419706 0.419706
vt 0.383337 0.449553
vt 0.341844 0.471731
vt 0.031250 1.000000
vt 0.031250 0.500000
vt 0.000000 1.000000
vt 0.000000 0.500000
vt 0.750000 0.490000
vt 0.796822 0.485388
vt 0.841844 0.471731
vt 0.883337 0.449553
vt 0.919706 0.419706
vt 0.949553 0.383337
vt 0.971731 0.341844
vt 0.985388 0.296822
vt 0.990000 0.250000
vt 0.985388 0.203178
vt 0.971731 0.158156
vt 0.949553 0.116663
vt 0.919706 0.080294
vt 0.883337 0.050447
vt 0.841844 0.028269
vt 0.796822 0.014612
vt 0.750000 0.010000
vt 0.703178 0.014612
vt 0.658156 0.028269
vt 0.616663 0.050447
vt 0.580294 0.080294
vt 0.550447 0.116663
vt 0.528269 0.158156
vt 0.514611 0.203179
vt 0.510000 0.250000
vt 0.514612 0.296822
vt 0.528269 0.341844
vt 0.550447 0.383337
vt 0.580295 0.419706
vt 0.616663 0.449553
vt 0.658156 0.471731
vt 0.703179 0.485389
vn 0.9952 -0.0980 -0.0000
vn 0.9569 -0.2903 -0.0000
vn 0.8819 -0.4714 -0.0000
vn 0.7730 -0.6344 -0.0000
vn 0.6344 -0.7730 -0.0000
vn 0.4714 -0.8819 -0.0000
vn 0.2903 -0.9569 0.0000
vn 0.0980 -0.9952 -0.0000
vn -0.0980 -0.9952 0.0000
vn -0.2903 -0.9569 0.0000
vn -0.4714 -0.8819 0.0000
vn -0.6344 -0.7730 0.0000
vn -0.7730 -0.6344 0.0000
vn -0.8819 -0.4714 0.0000
vn -0.9569 -0.2903 0.0000
vn -0.9952 -0.0980 0.0000
vn -0.9952 0.0980 0.0000
vn -0.9569 0.2903 0.0000
vn -0.8819 0.4714 0.0000
vn -0.7730 0.6344 0.0000
vn -0.6344 0.7730 0.0000
vn -0.4714 0.8819 -0.0000
vn -0.2903 0.9569 -0.0000
vn -0.0980 0.9952 -0.0000
vn 0.0980 0.9952 -0.0000
vn 0.2903 0.9569 -0.0000
vn 0.4714 0.8819 -0.0000
vn 0.6344 0.7730 -0.0000
vn 0.7730 0.6344 -0.0000
vn 0.8819 0.4714 -0.0000
vn 0.0000 0.0000 1.0000
vn 0.9569 0.2903 -0.0000
vn 0.9952 0.0980 -0.0000
vn -0.0000 -0.0000 -1.0000
usemtl 材質.020
s 1
f 9/15/7 10/16/7 11/17/7 12/18/7
f 12/18/8 11/17/8 13/19/8 14/20/8
f 14/20/9 13/19/9 15/21/9 16/22/9
f 16/22/10 15/21/10 17/23/10 18/24/10
f 18/24/11 17/23/11 19/25/11 20/26/11
f 20/26/12 19/25/12 21/27/12 22/28/12
f 22/28/13 21/27/13 23/29/13 24/30/13
f 24/30/14 23/29/14 25/31/14 26/32/14
f 26/32/15 25/31/15 27/33/15 28/34/15
f 28/34/16 27/33/16 29/35/16 30/36/16
f 30/36/17 29/35/17 31/37/17 32/38/17
f 32/38/18 31/37/18 33/39/18 34/40/18
f 34/40/19 33/39/19 35/41/19 36/42/19
f 36/42/20 35/41/20 37/43/20 38/44/20
f 38/44/21 37/43/21 39/45/21 40/46/21
f 40/46/22 39/45/22 41/47/22 42/48/22
f 42/48/23 41/47/23 43/49/23 44/50/23
f 44/50/24 43/49/24 45/51/24 46/52/24
f 46/52/25 45/51/25 47/53/25 48/54/25
f 48/54/26 47/53/26 49/55/26 50/56/26
f 50/56/27 49/55/27 51/57/27 52/58/27
f 52/58/28 51/57/28 53/59/28 54/60/28
f 54/60/29 53/59/29 55/61/29 56/62/29
f 56/62/30 55/61/30 57/63/30 58/64/30
f 58/64/31 57/63/31 59/65/31 60/66/31
f 60/66/32 59/65/32 61/67/32 62/68/32
f 62/68/33 61/67/33 63/69/33 64/70/33
f 64/70/34 63/69/34 65/71/34 66/72/34
f 66/72/35 65/71/35 67/73/35 68/74/35
f 68/74/36 67/73/36 69/75/36 70/76/36
f 11/77/37 10/78/37 71/79/37 69/80/37 67/81/37 65/82/37 63/83/37 61/84/37 59/85/37 57/86/37 55/87/37 53/88/37 51/89/37 49/90/37 47/91/37 45/92/37 43/93/37 41/94/37 39/95/37 37/96/37 35/97/37 33/98/37 31/99/37 29/100/37 27/101/37 25/102/37 23/103/37 21/104/37 19/105/37 17/106/37 15/107/37 13/108/37
f 70/76/38 69/75/38 71/109/38 72/110/38
f 72/110/39 71/109/39 10/111/39 9/112/39
f 9/113/40 12/114/40 14/115/40 16/116/40 18/117/40 20/118/40 22/119/40 24/120/40 26/121/40 28/122/40 30/123/40 32/124/40 34/125/40 36/126/40 38/127/40 40/128/40 42/129/40 44/130/40 46/131/40 48/132/40 50/133/40 52/134/40 54/135/40 56/136/40 58/137/40 60/138/40 62/139/40 64/140/40 66/141/40 68/142/40 70/143/40 72/144/40
o 圓錐體_圓錐體.003
v -4.000000 6.000000 -4.000000
v -0.000001 5.999998 -12.000001
v -3.923141 5.219637 -4.000000
v -3.695518 4.469265 -4.000000
v -3.325879 3.777718 -4.000000
v -2.828427 3.171572 -4.000000
v -2.222281 2.674120 -4.000000
v -1.530734 2.304481 -4.000000
v -0.780361 2.076858 -4.000000
v -0.000000 1.999999 -4.000000
v 0.780361 2.076858 -4.000000
v 1.530733 2.304481 -4.000000
v 2.222281 2.674120 -4.000000
v 2.828427 3.171572 -4.000001
v 3.325878 3.777718 -4.000001
v 3.695518 4.469266 -4.000001
v 3.923141 5.219639 -4.000001
v 4.000000 6.000000 -4.000001
v 3.923141 6.780363 -4.000001
v 3.695517 7.530735 -4.000001
v 3.325877 8.222282 -4.000001
v 2.828425 8.828428 -4.000002
v 2.222278 9.325879 -4.000002
v 1.530730 9.695518 -4.000002
v 0.780357 9.923140 -4.000002
v -0.000004 9.999999 -4.000001
v -0.780366 9.923140 -4.000001
v -1.530738 9.695516 -4.000001
v -2.222286 9.325875 -4.000001
v -2.828431 8.828424 -4.000001
v -3.325882 8.222276 -4.000001
v -3.695521 7.530727 -4.000001
v -3.923142 6.780354 -4.000001
vt 0.250000 0.490000
vt 0.250000 0.250000
vt 0.296822 0.485388
vt 0.341844 0.471731
vt 0.383337 0.449553
vt 0.419706 0.419706
vt 0.449553 0.383337
vt 0.471731 0.341844
vt 0.485388 0.296822
vt 0.490000 0.250000
vt 0.485388 0.203178
vt 0.471731 0.158156
vt 0.449553 0.116663
vt 0.419706 0.080294
vt 0.383337 0.050447
vt 0.341844 0.028269
vt 0.296822 0.014612
vt 0.250000 0.010000
vt 0.203178 0.014612
vt 0.158156 0.028269
vt 0.116663 0.050447
vt 0.080294 0.080294
vt 0.050447 0.116663
vt 0.028269 0.158156
vt 0.014611 0.203179
vt 0.010000 0.250000
vt 0.014612 0.296822
vt 0.028269 0.341844
vt 0.050447 0.383337
vt 0.080295 0.419706
vt 0.116663 0.449553
vt 0.158156 0.471731
vt 0.750000 0.490000
vt 0.796822 0.485388
vt 0.841844 0.471731
vt 0.883337 0.449553
vt 0.919706 0.419706
vt 0.949553 0.383337
vt 0.971731 0.341844
vt 0.985388 0.296822
vt 0.990000 0.250000
vt 0.985388 0.203178
vt 0.971731 0.158156
vt 0.949553 0.116663
vt 0.919706 0.080294
vt 0.883337 0.050447
vt 0.841844 0.028269
vt 0.796822 0.014612
vt 0.750000 0.010000
vt 0.703178 0.014612
vt 0.658156 0.028269
vt 0.616663 0.050447
vt 0.580294 0.080294
vt 0.550447 0.116663
vt 0.528269 0.158156
vt 0.514611 0.203179
vt 0.510000 0.250000
vt 0.514612 0.296822
vt 0.528269 0.341844
vt 0.550447 0.383337
vt 0.580295 0.419706
vt 0.616663 0.449553
vt 0.658156 0.471731
vt 0.703179 0.485389
vt 0.203179 0.485389
vn -0.8910 -0.0878 -0.4455
vn -0.8567 -0.2599 -0.4455
vn -0.7896 -0.4220 -0.4455
vn -0.6921 -0.5680 -0.4455
vn -0.5680 -0.6921 -0.4455
vn -0.4220 -0.7896 -0.4455
vn -0.2599 -0.8567 -0.4455
vn -0.0878 -0.8910 -0.4455
vn 0.0878 -0.8910 -0.4455
vn 0.2599 -0.8567 -0.4455
vn 0.4220 -0.7896 -0.4455
vn 0.5680 -0.6921 -0.4455
vn 0.6921 -0.5680 -0.4455
vn 0.7896 -0.4220 -0.4455
vn 0.8567 -0.2599 -0.4455
vn 0.8910 -0.0878 -0.4455
vn 0.8910 0.0878 -0.4455
vn 0.8567 0.2599 -0.4455
vn 0.7896 0.4220 -0.4455
vn 0.6921 0.5680 -0.4455
vn 0.5680 0.6921 -0.4455
vn 0.4220 0.7896 -0.4455
vn 0.2599 0.8567 -0.4455
vn 0.0878 0.8910 -0.4455
vn -0.0878 0.8910 -0.4455
vn -0.2599 0.8567 -0.4455
vn -0.4220 0.7896 -0.4455
vn -0.5680 0.6921 -0.4455
vn -0.6921 0.5680 -0.4455
vn -0.7896 0.4220 -0.4455
vn 0.0000 0.0000 1.0000
vn -0.8567 0.2599 -0.4455
vn -0.8910 0.0878 -0.4455
usemtl 材質.018
s 1
f 73/145/41 74/146/41 75/147/41
f 75/147/42 74/146/42 76/148/42
f 76/148/43 74/146/43 77/149/43
f 77/149/44 74/146/44 78/150/44
f 78/150/45 74/146/45 79/151/45
f 79/151/46 74/146/46 80/152/46
f 80/152/47 74/146/47 81/153/47
f 81/153/48 74/146/48 82/154/48
f 82/154/49 74/146/49 83/155/49
f 83/155/50 74/146/50 84/156/50
f 84/156/51 74/146/51 85/157/51
f 85/157/52 74/146/52 86/158/52
f 86/158/53 74/146/53 87/159/53
f 87/159/54 74/146/54 88/160/54
f 88/160/55 74/146/55 89/161/55
f 89/161/56 74/146/56 90/162/56
f 90/162/57 74/146/57 91/163/57
f 91/163/58 74/146/58 92/164/58
f 92/164/59 74/146/59 93/165/59
f 93/165/60 74/146/60 94/166/60
f 94/166/61 74/146/61 95/167/61
f 95/167/62 74/146/62 96/168/62
f 96/168/63 74/146/63 97/169/63
f 97/169/64 74/146/64 98/170/64
f 98/170/65 74/146/65 99/171/65
f 99/171/66 74/146/66 100/172/66
f 100/172/67 74/146/67 101/173/67
f 101/173/68 74/146/68 102/174/68
f 102/174/69 74/146/69 103/175/69
f 103/175/70 74/146/70 104/176/70
f 73/177/71 75/178/71 76/179/71 77/180/71 78/181/71 79/182/71 80/183/71 81/184/71 82/185/71 83/186/71 84/187/71 85/188/71 86/189/71 87/190/71 88/191/71 89/192/71 90/193/71 91/194/71 92/195/71 93/196/71 94/197/71 95/198/71 96/199/71 97/200/71 98/201/71 99/202/71 100/203/71 101/204/71 102/205/71 103/206/71 104/207/71 105/208/71
f 104/176/72 74/146/72 105/209/72
f 105/209/73 74/146/73 73/145/73
