# Blender v2.90.0 OBJ File: 'untitled.blend'
# www.blender.org
mtllib enemytypeAbehit.mtl
o 圓柱體
v 0.000000 -0.000000 2.500000
v 0.000000 2.000000 2.500000
v -0.487726 2.000000 2.451963
v -0.487726 -0.000000 2.451963
v -0.956709 2.000000 2.309699
v -0.956709 -0.000000 2.309699
v -1.388926 2.000000 2.078674
v -1.388926 -0.000000 2.078674
v -1.767767 2.000000 1.767767
v -1.767767 -0.000000 1.767767
v -2.078674 2.000000 1.388925
v -2.078674 -0.000000 1.388925
v -2.309699 2.000000 0.956709
v -2.309699 -0.000000 0.956709
v -2.451963 2.000000 0.487726
v -2.451963 -0.000000 0.487726
v -2.500000 2.000000 0.000000
v -2.500000 0.000000 0.000000
v -2.451963 2.000000 -0.487725
v -2.451963 0.000000 -0.487725
v -2.309699 2.000000 -0.956708
v -2.309699 0.000000 -0.956708
v -2.078674 2.000000 -1.388925
v -2.078674 0.000000 -1.388925
v -1.767767 2.000000 -1.767767
v -1.767767 0.000000 -1.767767
v -1.388925 2.000000 -2.078674
v -1.388925 0.000000 -2.078674
v -0.956708 2.000000 -2.309699
v -0.956708 0.000000 -2.309699
v -0.487725 2.000000 -2.451963
v -0.487725 0.000000 -2.451963
v 0.000001 2.000000 -2.500000
v 0.000001 0.000000 -2.500000
v 0.487727 2.000000 -2.451963
v 0.487727 0.000000 -2.451963
v 0.956710 2.000000 -2.309699
v 0.956710 0.000000 -2.309698
v 1.388927 2.000000 -2.078673
v 1.388927 0.000000 -2.078673
v 1.767768 2.000000 -1.767766
v 1.767768 0.000000 -1.767766
v 2.078675 2.000000 -1.388924
v 2.078675 0.000000 -1.388924
v 2.309700 2.000000 -0.956708
v 2.309700 0.000000 -0.956707
v 2.451964 2.000000 -0.487725
v 2.451964 0.000000 -0.487724
v 2.500000 2.000000 0.000001
v 2.500000 -0.000000 0.000002
v 2.451963 2.000000 0.487727
v 2.451963 -0.000000 0.487728
v 2.309698 2.000000 0.956710
v 2.309698 -0.000000 0.956711
v 2.078672 2.000000 1.388928
v 2.078672 -0.000000 1.388928
v 1.767765 2.000000 1.767769
v 1.767765 -0.000000 1.767769
v 1.388923 2.000000 2.078676
v 1.388923 -0.000000 2.078676
v 0.956705 2.000000 2.309700
v 0.956705 -0.000000 2.309700
v 0.487722 2.000000 2.451963
v 0.487722 -0.000000 2.451964
vt 1.000000 0.500000
vt 1.000000 1.000000
vt 0.968750 1.000000
vt 0.968750 0.500000
vt 0.937500 1.000000
vt 0.937500 0.500000
vt 0.906250 1.000000
vt 0.906250 0.500000
vt 0.875000 1.000000
vt 0.875000 0.500000
vt 0.843750 1.000000
vt 0.843750 0.500000
vt 0.812500 1.000000
vt 0.812500 0.500000
vt 0.781250 1.000000
vt 0.781250 0.500000
vt 0.750000 1.000000
vt 0.750000 0.500000
vt 0.718750 1.000000
vt 0.718750 0.500000
vt 0.687500 1.000000
vt 0.687500 0.500000
vt 0.656250 1.000000
vt 0.656250 0.500000
vt 0.625000 1.000000
vt 0.625000 0.500000
vt 0.593750 1.000000
vt 0.593750 0.500000
vt 0.562500 1.000000
vt 0.562500 0.500000
vt 0.531250 1.000000
vt 0.531250 0.500000
vt 0.500000 1.000000
vt 0.500000 0.500000
vt 0.468750 1.000000
vt 0.468750 0.500000
vt 0.437500 1.000000
vt 0.437500 0.500000
vt 0.406250 1.000000
vt 0.406250 0.500000
vt 0.375000 1.000000
vt 0.375000 0.500000
vt 0.343750 1.000000
vt 0.343750 0.500000
vt 0.312500 1.000000
vt 0.312500 0.500000
vt 0.281250 1.000000
vt 0.281250 0.500000
vt 0.250000 1.000000
vt 0.250000 0.500000
vt 0.218750 1.000000
vt 0.218750 0.500000
vt 0.187500 1.000000
vt 0.187500 0.500000
vt 0.156250 1.000000
vt 0.156250 0.500000
vt 0.125000 1.000000
vt 0.125000 0.500000
vt 0.093750 1.000000
vt 0.093750 0.500000
vt 0.062500 1.000000
vt 0.062500 0.500000
vt 0.296822 0.485388
vt 0.250000 0.490000
vt 0.203179 0.485389
vt 0.158156 0.471731
vt 0.116663 0.449553
vt 0.080295 0.419706
vt 0.050447 0.383337
vt 0.028269 0.341844
vt 0.014612 0.296822
vt 0.010000 0.250000
vt 0.014611 0.203179
vt 0.028269 0.158156
vt 0.050447 0.116663
vt 0.080294 0.080294
vt 0.116663 0.050447
vt 0.158156 0.028269
vt 0.203178 0.014612
vt 0.250000 0.010000
vt 0.296822 0.014612
vt 0.341844 0.028269
vt 0.383337 0.050447
vt 0.419706 0.080294
vt 0.449553 0.116663
vt 0.471731 0.158156
vt 0.485388 0.203178
vt 0.490000 0.250000
vt 0.485388 0.296822
vt 0.471731 0.341844
vt 0.449553 0.383337
vt 0.419706 0.419706
vt 0.383337 0.449553
vt 0.341844 0.471731
vt 0.031250 1.000000
vt 0.031250 0.500000
vt 0.000000 1.000000
vt 0.000000 0.500000
vt 0.750000 0.490000
vt 0.796822 0.485388
vt 0.841844 0.471731
vt 0.883337 0.449553
vt 0.919706 0.419706
vt 0.949553 0.383337
vt 0.971731 0.341844
vt 0.985388 0.296822
vt 0.990000 0.250000
vt 0.985388 0.203178
vt 0.971731 0.158156
vt 0.949553 0.116663
vt 0.919706 0.080294
vt 0.883337 0.050447
vt 0.841844 0.028269
vt 0.796822 0.014612
vt 0.750000 0.010000
vt 0.703178 0.014612
vt 0.658156 0.028269
vt 0.616663 0.050447
vt 0.580294 0.080294
vt 0.550447 0.116663
vt 0.528269 0.158156
vt 0.514611 0.203179
vt 0.510000 0.250000
vt 0.514612 0.296822
vt 0.528269 0.341844
vt 0.550447 0.383337
vt 0.580295 0.419706
vt 0.616663 0.449553
vt 0.658156 0.471731
vt 0.703179 0.485389
vn -0.0980 -0.0000 0.9952
vn -0.2903 -0.0000 0.9569
vn -0.4714 -0.0000 0.8819
vn -0.6344 -0.0000 0.7730
vn -0.7730 -0.0000 0.6344
vn -0.8819 -0.0000 0.4714
vn -0.9569 -0.0000 0.2903
vn -0.9952 0.0000 0.0980
vn -0.9952 0.0000 -0.0980
vn -0.9569 0.0000 -0.2903
vn -0.8819 0.0000 -0.4714
vn -0.7730 0.0000 -0.6344
vn -0.6344 0.0000 -0.7730
vn -0.4714 0.0000 -0.8819
vn -0.2903 0.0000 -0.9569
vn -0.0980 0.0000 -0.9952
vn 0.0980 0.0000 -0.9952
vn 0.2903 -0.0000 -0.9569
vn 0.4714 -0.0000 -0.8819
vn 0.6344 0.0000 -0.7730
vn 0.7730 0.0000 -0.6344
vn 0.8819 0.0000 -0.4714
vn 0.9569 -0.0000 -0.2903
vn 0.9952 -0.0000 -0.0980
vn 0.9952 -0.0000 0.0980
vn 0.9569 0.0000 0.2903
vn 0.8819 0.0000 0.4714
vn 0.7730 -0.0000 0.6344
vn 0.6344 -0.0000 0.7730
vn 0.4714 -0.0000 0.8819
vn -0.0000 1.0000 0.0000
vn 0.2903 0.0000 0.9569
vn 0.0980 0.0000 0.9952
vn -0.0000 -1.0000 -0.0000
usemtl 材質.002
s 1
f 1/1/1 2/2/1 3/3/1 4/4/1
f 4/4/2 3/3/2 5/5/2 6/6/2
f 6/6/3 5/5/3 7/7/3 8/8/3
f 8/8/4 7/7/4 9/9/4 10/10/4
f 10/10/5 9/9/5 11/11/5 12/12/5
f 12/12/6 11/11/6 13/13/6 14/14/6
f 14/14/7 13/13/7 15/15/7 16/16/7
f 16/16/8 15/15/8 17/17/8 18/18/8
f 18/18/9 17/17/9 19/19/9 20/20/9
f 20/20/10 19/19/10 21/21/10 22/22/10
f 22/22/11 21/21/11 23/23/11 24/24/11
f 24/24/12 23/23/12 25/25/12 26/26/12
f 26/26/13 25/25/13 27/27/13 28/28/13
f 28/28/14 27/27/14 29/29/14 30/30/14
f 30/30/15 29/29/15 31/31/15 32/32/15
f 32/32/16 31/31/16 33/33/16 34/34/16
f 34/34/17 33/33/17 35/35/17 36/36/17
f 36/36/18 35/35/18 37/37/18 38/38/18
f 38/38/19 37/37/19 39/39/19 40/40/19
f 40/40/20 39/39/20 41/41/20 42/42/20
f 42/42/21 41/41/21 43/43/21 44/44/21
f 44/44/22 43/43/22 45/45/22 46/46/22
f 46/46/23 45/45/23 47/47/23 48/48/23
f 48/48/24 47/47/24 49/49/24 50/50/24
f 50/50/25 49/49/25 51/51/25 52/52/25
f 52/52/26 51/51/26 53/53/26 54/54/26
f 54/54/27 53/53/27 55/55/27 56/56/27
f 56/56/28 55/55/28 57/57/28 58/58/28
f 58/58/29 57/57/29 59/59/29 60/60/29
f 60/60/30 59/59/30 61/61/30 62/62/30
f 3/63/31 2/64/31 63/65/31 61/66/31 59/67/31 57/68/31 55/69/31 53/70/31 51/71/31 49/72/31 47/73/31 45/74/31 43/75/31 41/76/31 39/77/31 37/78/31 35/79/31 33/80/31 31/81/31 29/82/31 27/83/31 25/84/31 23/85/31 21/86/31 19/87/31 17/88/31 15/89/31 13/90/31 11/91/31 9/92/31 7/93/31 5/94/31
f 62/62/32 61/61/32 63/95/32 64/96/32
f 64/96/33 63/95/33 2/97/33 1/98/33
f 1/99/34 4/100/34 6/101/34 8/102/34 10/103/34 12/104/34 14/105/34 16/106/34 18/107/34 20/108/34 22/109/34 24/110/34 26/111/34 28/112/34 30/113/34 32/114/34 34/115/34 36/116/34 38/117/34 40/118/34 42/119/34 44/120/34 46/121/34 48/122/34 50/123/34 52/124/34 54/125/34 56/126/34 58/127/34 60/128/34 62/129/34 64/130/34
o 立方體
v 1.500000 2.000000 -1.500000
v 1.500000 4.000000 -1.500001
v 1.500000 4.000000 1.499999
v 1.500000 2.000000 1.500000
v -1.500000 4.000000 1.500000
v -1.500000 2.000000 1.500000
v -1.500000 4.000000 -1.500000
v -1.500000 2.000000 -1.500000
vt 0.375000 0.000000
vt 0.625000 0.000000
vt 0.625000 0.250000
vt 0.375000 0.250000
vt 0.625000 0.500000
vt 0.375000 0.500000
vt 0.625000 0.750000
vt 0.375000 0.750000
vt 0.625000 1.000000
vt 0.375000 1.000000
vt 0.125000 0.500000
vt 0.125000 0.750000
vt 0.875000 0.500000
vt 0.875000 0.750000
vn 1.0000 0.0000 0.0000
vn 0.0000 0.0000 1.0000
vn -1.0000 0.0000 0.0000
vn -0.0000 -0.0000 -1.0000
vn 0.0000 -1.0000 -0.0000
vn 0.0000 1.0000 0.0000
usemtl 材質.003
s 1
f 65/131/35 66/132/35 67/133/35 68/134/35
f 68/134/36 67/133/36 69/135/36 70/136/36
f 70/136/37 69/135/37 71/137/37 72/138/37
f 72/138/38 71/137/38 66/139/38 65/140/38
f 68/141/39 70/136/39 72/138/39 65/142/39
f 69/135/40 67/143/40 66/144/40 71/137/40
o 立方體.001
v -0.500000 3.999999 -3.999999
v -0.500000 5.000000 -4.000001
v 0.500000 5.000000 -4.000001
v 0.500000 3.999999 -3.999999
v 0.500000 5.000000 -0.000001
v 0.500000 4.000000 -0.000001
v -0.500000 5.000000 -0.000001
v -0.500000 4.000000 -0.000001
vt 0.375000 0.000000
vt 0.625000 0.000000
vt 0.625000 0.250000
vt 0.375000 0.250000
vt 0.625000 0.500000
vt 0.375000 0.500000
vt 0.625000 0.750000
vt 0.375000 0.750000
vt 0.625000 1.000000
vt 0.375000 1.000000
vt 0.125000 0.500000
vt 0.125000 0.750000
vt 0.875000 0.500000
vt 0.875000 0.750000
vn 0.0000 -0.0000 -1.0000
vn 1.0000 -0.0000 0.0000
vn 0.0000 -0.0000 1.0000
vn -1.0000 0.0000 0.0000
vn 0.0000 -1.0000 0.0000
vn 0.0000 1.0000 0.0000
usemtl 材質
s 1
f 73/145/41 74/146/41 75/147/41 76/148/41
f 76/148/42 75/147/42 77/149/42 78/150/42
f 78/150/43 77/149/43 79/151/43 80/152/43
f 80/152/44 79/151/44 74/153/44 73/154/44
f 76/155/45 78/150/45 80/152/45 73/156/45
f 77/149/46 75/157/46 74/158/46 79/151/46
o 圓錐體
v 0.000000 4.000000 1.499999
v 0.000000 6.000000 -0.000001
v -0.292636 4.000000 1.471177
v -0.574025 4.000000 1.385818
v -0.833355 4.000000 1.247203
v -1.060660 4.000000 1.060659
v -1.247205 4.000000 0.833354
v -1.385819 4.000000 0.574024
v -1.471178 4.000000 0.292635
v -1.500000 4.000000 -0.000001
v -1.471178 4.000000 -0.292636
v -1.385819 4.000000 -0.574026
v -1.247205 4.000000 -0.833356
v -1.060660 4.000000 -1.060661
v -0.833355 4.000000 -1.247206
v -0.574025 4.000000 -1.385820
v -0.292635 4.000000 -1.471179
v 0.000000 4.000000 -1.500001
v 0.292636 4.000000 -1.471179
v 0.574026 4.000000 -1.385820
v 0.833356 4.000000 -1.247205
v 1.060661 4.000000 -1.060661
v 1.247205 4.000000 -0.833355
v 1.385820 4.000000 -0.574025
v 1.471178 4.000000 -0.292635
v 1.500000 4.000000 -0.000000
v 1.471178 4.000000 0.292636
v 1.385819 4.000000 0.574026
v 1.247203 4.000000 0.833356
v 1.060659 4.000000 1.060661
v 0.833354 4.000000 1.247204
v 0.574023 4.000000 1.385819
v 0.292633 4.000000 1.471177
vt 0.250000 0.490000
vt 0.250000 0.250000
vt 0.296822 0.485388
vt 0.341844 0.471731
vt 0.383337 0.449553
vt 0.419706 0.419706
vt 0.449553 0.383337
vt 0.471731 0.341844
vt 0.485388 0.296822
vt 0.490000 0.250000
vt 0.485388 0.203178
vt 0.471731 0.158156
vt 0.449553 0.116663
vt 0.419706 0.080294
vt 0.383337 0.050447
vt 0.341844 0.028269
vt 0.296822 0.014612
vt 0.250000 0.010000
vt 0.203178 0.014612
vt 0.158156 0.028269
vt 0.116663 0.050447
vt 0.080294 0.080294
vt 0.050447 0.116663
vt 0.028269 0.158156
vt 0.014611 0.203179
vt 0.010000 0.250000
vt 0.014612 0.296822
vt 0.028269 0.341844
vt 0.050447 0.383337
vt 0.080295 0.419706
vt 0.116663 0.449553
vt 0.158156 0.471731
vt 0.750000 0.490000
vt 0.796822 0.485388
vt 0.841844 0.471731
vt 0.883337 0.449553
vt 0.919706 0.419706
vt 0.949553 0.383337
vt 0.971731 0.341844
vt 0.985388 0.296822
vt 0.990000 0.250000
vt 0.985388 0.203178
vt 0.971731 0.158156
vt 0.949553 0.116663
vt 0.919706 0.080294
vt 0.883337 0.050447
vt 0.841844 0.028269
vt 0.796822 0.014612
vt 0.750000 0.010000
vt 0.703178 0.014612
vt 0.658156 0.028269
vt 0.616663 0.050447
vt 0.580294 0.080294
vt 0.550447 0.116663
vt 0.528269 0.158156
vt 0.514611 0.203179
vt 0.510000 0.250000
vt 0.514612 0.296822
vt 0.528269 0.341844
vt 0.550447 0.383337
vt 0.580295 0.419706
vt 0.616663 0.449553
vt 0.658156 0.471731
vt 0.703179 0.485389
vt 0.203179 0.485389
vn -0.0785 0.5981 0.7975
vn -0.2326 0.5981 0.7669
vn -0.3778 0.5981 0.7068
vn -0.5084 0.5981 0.6195
vn -0.6195 0.5981 0.5084
vn -0.7068 0.5981 0.3778
vn -0.7669 0.5981 0.2326
vn -0.7975 0.5981 0.0785
vn -0.7975 0.5981 -0.0785
vn -0.7669 0.5981 -0.2326
vn -0.7068 0.5981 -0.3778
vn -0.6195 0.5981 -0.5084
vn -0.5084 0.5981 -0.6195
vn -0.3778 0.5981 -0.7068
vn -0.2326 0.5981 -0.7669
vn -0.0785 0.5981 -0.7975
vn 0.0785 0.5981 -0.7975
vn 0.2326 0.5981 -0.7669
vn 0.3778 0.5981 -0.7068
vn 0.5084 0.5981 -0.6195
vn 0.6195 0.5981 -0.5084
vn 0.7068 0.5981 -0.3778
vn 0.7669 0.5981 -0.2326
vn 0.7975 0.5981 -0.0785
vn 0.7975 0.5981 0.0785
vn 0.7669 0.5981 0.2326
vn 0.7068 0.5981 0.3778
vn 0.6195 0.5981 0.5084
vn 0.5084 0.5981 0.6195
vn 0.3778 0.5981 0.7068
vn 0.0000 -1.0000 -0.0000
vn 0.2326 0.5981 0.7669
vn 0.0785 0.5981 0.7975
usemtl 材質.001
s 1
f 81/159/47 82/160/47 83/161/47
f 83/161/48 82/160/48 84/162/48
f 84/162/49 82/160/49 85/163/49
f 85/163/50 82/160/50 86/164/50
f 86/164/51 82/160/51 87/165/51
f 87/165/52 82/160/52 88/166/52
f 88/166/53 82/160/53 89/167/53
f 89/167/54 82/160/54 90/168/54
f 90/168/55 82/160/55 91/169/55
f 91/169/56 82/160/56 92/170/56
f 92/170/57 82/160/57 93/171/57
f 93/171/58 82/160/58 94/172/58
f 94/172/59 82/160/59 95/173/59
f 95/173/60 82/160/60 96/174/60
f 96/174/61 82/160/61 97/175/61
f 97/175/62 82/160/62 98/176/62
f 98/176/63 82/160/63 99/177/63
f 99/177/64 82/160/64 100/178/64
f 100/178/65 82/160/65 101/179/65
f 101/179/66 82/160/66 102/180/66
f 102/180/67 82/160/67 103/181/67
f 103/181/68 82/160/68 104/182/68
f 104/182/69 82/160/69 105/183/69
f 105/183/70 82/160/70 106/184/70
f 106/184/71 82/160/71 107/185/71
f 107/185/72 82/160/72 108/186/72
f 108/186/73 82/160/73 109/187/73
f 109/187/74 82/160/74 110/188/74
f 110/188/75 82/160/75 111/189/75
f 111/189/76 82/160/76 112/190/76
f 81/191/77 83/192/77 84/193/77 85/194/77 86/195/77 87/196/77 88/197/77 89/198/77 90/199/77 91/200/77 92/201/77 93/202/77 94/203/77 95/204/77 96/205/77 97/206/77 98/207/77 99/208/77 100/209/77 101/210/77 102/211/77 103/212/77 104/213/77 105/214/77 106/215/77 107/216/77 108/217/77 109/218/77 110/219/77 111/220/77 112/221/77 113/222/77
f 112/190/78 82/160/78 113/223/78
f 113/223/79 82/160/79 81/159/79
