# Blender v2.90.0 OBJ File: 'untitled.blend'
# www.blender.org
mtllib enemytypeB.mtl
o 立方體.005
v -1.000000 7.621320 -5.535533
v -1.000000 9.035534 -4.121320
v 1.000000 9.035534 -4.121320
v 1.000000 7.621320 -5.535533
v 1.000000 3.378680 1.535534
v 1.000000 1.964466 0.121320
v -1.000000 3.378680 1.535535
v -1.000000 1.964466 0.121320
vt 0.375000 0.000000
vt 0.625000 0.000000
vt 0.625000 0.250000
vt 0.375000 0.250000
vt 0.625000 0.500000
vt 0.375000 0.500000
vt 0.625000 0.750000
vt 0.375000 0.750000
vt 0.625000 1.000000
vt 0.375000 1.000000
vt 0.125000 0.500000
vt 0.125000 0.750000
vt 0.875000 0.500000
vt 0.875000 0.750000
vn 0.0000 0.7071 -0.7071
vn 1.0000 0.0000 0.0000
vn 0.0000 -0.7071 0.7071
vn -1.0000 -0.0000 0.0000
vn 0.0000 -0.7071 -0.7071
vn 0.0000 0.7071 0.7071
usemtl 材質.018
s off
f 1/1/1 2/2/1 3/3/1 4/4/1
f 4/4/2 3/3/2 5/5/2 6/6/2
f 6/6/3 5/5/3 7/7/3 8/8/3
f 8/8/4 7/7/4 2/9/4 1/10/4
f 4/11/5 6/6/5 8/8/5 1/12/5
f 5/5/6 3/13/6 2/14/6 7/7/6
o 立方體_立方體.001
v 5.000000 -0.000000 -5.000000
v 5.000000 3.000000 -5.000000
v 5.000000 3.000000 5.000000
v 5.000000 0.000000 5.000000
v -5.000000 3.000000 5.000000
v -5.000000 0.000000 5.000000
v -5.000000 3.000000 -5.000000
v -5.000000 -0.000000 -5.000000
vt 0.375000 0.000000
vt 0.625000 0.000000
vt 0.625000 0.250000
vt 0.375000 0.250000
vt 0.625000 0.500000
vt 0.375000 0.500000
vt 0.625000 0.750000
vt 0.375000 0.750000
vt 0.625000 1.000000
vt 0.375000 1.000000
vt 0.125000 0.500000
vt 0.125000 0.750000
vt 0.875000 0.500000
vt 0.875000 0.750000
vn 1.0000 0.0000 0.0000
vn 0.0000 0.0000 1.0000
vn -1.0000 0.0000 0.0000
vn 0.0000 0.0000 -1.0000
vn 0.0000 -1.0000 0.0000
vn -0.0000 1.0000 -0.0000
usemtl 材質.019
s off
f 9/15/7 10/16/7 11/17/7 12/18/7
f 12/18/8 11/17/8 13/19/8 14/20/8
f 14/20/9 13/19/9 15/21/9 16/22/9
f 16/22/10 15/21/10 10/23/10 9/24/10
f 12/25/11 14/20/11 16/22/11 9/26/11
f 13/19/12 11/27/12 10/28/12 15/21/12
o Mball.001
v -1.939701 5.500000 1.500000
v -1.500000 5.500000 1.939701
v -1.500000 5.939702 1.500000
v -2.401971 4.500000 1.500001
v -1.500000 4.500000 2.401971
v -2.401971 3.500000 1.500001
v -1.500000 3.500000 2.401972
v -2.500000 4.500000 1.325491
v -2.500000 3.500000 1.325491
v -2.787774 4.500000 0.500001
v -2.787774 3.500000 0.500001
v -2.500000 2.674510 0.500000
v -2.787774 3.500000 -0.499999
v -2.500000 2.674510 -0.500000
v -2.500000 3.500000 -1.325489
v -2.787774 4.500000 -0.499999
v -2.500000 4.500000 -1.325489
v -2.500000 5.325490 -0.500000
v -2.500000 5.325490 0.500000
v -2.401971 5.500000 0.500000
v -2.401971 5.500000 -0.500000
v -1.500000 6.401971 0.500000
v -1.500000 6.401971 -0.500000
v -1.325490 6.500000 0.500000
v -1.325490 6.500000 -0.500000
v -0.500000 6.787774 0.500000
v -0.500000 6.787774 -0.500000
v -0.500000 6.500000 -1.325490
v 0.500000 6.500000 -1.325490
v 0.500000 6.787774 -0.500000
v -0.500000 6.401970 -1.500000
v 0.500000 6.401970 -1.500000
v 0.500000 5.500000 -2.401971
v -0.500000 5.500000 -2.401971
v -0.500000 5.325490 -2.500000
v 0.500000 5.325490 -2.500000
v 0.500000 4.500000 -2.787774
v -0.500000 4.500000 -2.787774
v -0.500000 3.500000 -2.787775
v 0.500000 3.500000 -2.787775
v -0.500000 2.674510 -2.500000
v 0.500000 2.674510 -2.500000
v 0.500000 2.500000 -2.401972
v -0.500000 2.500000 -2.401972
v -0.500000 1.598029 -1.500000
v 0.500000 1.598029 -1.500000
v 0.500000 1.500000 -1.325490
v -0.500000 1.500000 -1.325490
v -0.500000 1.212226 -0.500000
v 0.500000 1.212226 -0.500000
v 0.500000 1.212226 0.500000
v -0.500000 1.212226 0.500000
v 0.500000 1.500000 1.325490
v -0.500000 1.500000 1.325490
v -0.500000 1.598029 1.500000
v 0.500000 1.598029 1.500000
v 0.500000 2.500000 2.401972
v -0.500000 2.500000 2.401972
v -0.500000 2.674510 2.500000
v 0.500000 2.674510 2.500000
v 0.500000 3.500000 2.787773
v -0.500000 3.500000 2.787775
v 0.500000 4.500000 2.787774
v -0.500000 4.500000 2.787774
v -0.500000 5.325490 2.500000
v 0.500000 5.325490 2.500000
v 0.500000 5.500000 2.401971
v -0.500000 5.500000 2.401971
v -0.500000 6.401970 1.500000
v 0.500000 6.401970 1.500000
v 0.500000 6.500000 1.325490
v -0.500000 6.500000 1.325490
v 0.500000 6.787774 0.500000
v 1.325490 6.500000 0.500000
v 1.325490 6.500000 -0.500000
v 1.500000 6.401971 0.500000
v 1.500000 6.401971 -0.500000
v 2.401971 5.500000 0.500000
v 2.401971 5.500000 -0.500000
v 2.500000 5.325490 0.500000
v 2.500000 5.325490 -0.500000
v 1.939701 5.500000 1.500000
v 2.401971 4.500000 1.500000
v 2.500000 4.500000 1.325490
v 2.401971 3.500000 1.500000
v 2.500000 3.500000 1.325490
v 1.939701 2.500000 1.499999
v 2.401971 2.500000 0.499999
v 2.500000 2.674510 0.499999
v 1.500000 3.500000 2.401970
v 1.500000 2.500000 1.939700
v 1.500000 2.060299 1.500000
v 2.401971 2.500000 -0.500001
v 2.500000 2.674510 -0.500001
v 1.500000 1.598029 0.500000
v 1.500000 1.598029 -0.500000
v 1.939701 2.500000 -1.500001
v 1.500000 2.060299 -1.500000
v 1.325490 1.500000 0.500000
v 1.325490 1.500000 -0.500000
v 2.401971 3.500000 -1.500000
v 2.500000 3.500000 -1.325490
v 2.401971 4.500000 -1.500000
v 2.500000 4.500000 -1.325490
v 1.500000 4.500000 -2.401971
v 1.500000 3.500000 -2.401972
v 1.325490 3.500000 -2.500000
v 1.325490 4.500000 -2.500000
v 2.787774 4.500000 -0.500000
v 2.787774 3.500000 -0.500000
v 2.787774 4.500000 0.500000
v 2.787774 3.500000 0.500000
v 1.500000 2.500000 -1.939702
v 1.500000 4.500000 2.401971
v 1.325490 4.500000 2.500000
v 1.325490 3.500000 2.500000
v 1.500000 5.500000 1.939701
v 1.500000 5.939702 1.500000
v 1.939701 5.500000 -1.500000
v 1.500000 5.939702 -1.500000
v 1.500000 5.500000 -1.939701
v -1.325490 4.500000 2.500000
v -1.325490 3.500000 2.500000
v -1.500000 2.500000 1.939701
v -1.500000 2.060299 1.500000
v -1.939701 2.500000 1.500000
v -2.401971 2.500000 0.500000
v -1.500000 1.598029 0.500000
v -2.401971 2.500000 -0.500000
v -1.500000 1.598029 -0.500000
v -1.939701 2.500000 -1.500000
v -1.500000 2.060299 -1.500000
v -1.500000 2.500000 -1.939701
v -2.401971 3.500000 -1.499999
v -1.500000 3.500000 -2.401972
v -2.401971 4.500000 -1.499999
v -1.500000 4.500000 -2.401971
v -1.939701 5.500000 -1.500000
v -1.500000 5.500000 -1.939701
v -1.500000 5.939702 -1.500000
v -1.325490 4.500000 -2.500000
v -1.325490 3.500000 -2.500000
v -1.325490 1.500000 -0.500000
v -1.325490 1.500000 0.500000
vt 0.375000 0.000000
vt 0.375000 0.000000
vt 0.375000 0.000000
vt 0.375000 0.000000
vt 0.375000 0.000000
vt 0.375000 0.000000
vt 0.375000 0.000000
vt 0.375000 0.000000
vt 0.375000 0.000000
vt 0.375000 0.000000
vt 0.375000 0.000000
vt 0.375000 0.000000
vt 0.375000 0.000000
vt 0.375000 0.000000
vt 0.375000 0.000000
vt 0.375000 0.000000
vt 0.375000 0.000000
vt 0.375000 0.000000
vt 0.375000 0.000000
vt 0.375000 0.000000
vt 0.375000 0.000000
vt 0.375000 0.000000
vt 0.375000 0.000000
vt 0.375000 0.000000
vt 0.375000 0.000000
vt 0.375000 0.000000
vt 0.375000 0.000000
vt 0.375000 0.000000
vt 0.375000 0.000000
vt 0.375000 0.000000
vt 0.375000 0.000000
vt 0.375000 0.000000
vt 0.375000 0.000000
vt 0.375000 0.000000
vt 0.375000 0.000000
vt 0.375000 0.000000
vt 0.375000 0.000000
vt 0.375000 0.000000
vt 0.375000 0.000000
vt 0.375000 0.000000
vt 0.375000 0.000000
vt 0.375000 0.000000
vt 0.375000 0.000000
vt 0.375000 0.000000
vt 0.375000 0.000000
vt 0.375000 0.000000
vt 0.375000 0.000000
vt 0.375000 0.000000
vt 0.375000 0.000000
vt 0.375000 0.000000
vt 0.375000 0.000000
vt 0.375000 0.000000
vt 0.375000 0.000000
vt 0.375000 0.000000
vt 0.375000 0.000000
vt 0.375000 0.000000
vt 0.375000 0.000000
vt 0.375000 0.000000
vt 0.375000 0.000000
vt 0.375000 0.000000
vt 0.375000 0.000000
vt 0.375000 0.000000
vt 0.375000 0.000000
vt 0.375000 0.000000
vt 0.375000 0.000000
vt 0.375000 0.000000
vt 0.375000 0.000000
vt 0.375000 0.000000
vt 0.375000 0.000000
vt 0.375000 0.000000
vt 0.375000 0.000000
vt 0.375000 0.000000
vt 0.375000 0.000000
vt 0.375000 0.000000
vt 0.375000 0.000000
vt 0.375000 0.000000
vt 0.375000 0.000000
vt 0.375000 0.000000
vt 0.375000 0.000000
vt 0.375000 0.000000
vt 0.375000 0.000000
vt 0.375000 0.000000
vt 0.375000 0.000000
vt 0.375000 0.000000
vt 0.375000 0.000000
vt 0.375000 0.000000
vt 0.375000 0.000000
vt 0.375000 0.000000
vt 0.375000 0.000000
vt 0.375000 0.000000
vt 0.375000 0.000000
vt 0.375000 0.000000
vt 0.375000 0.000000
vt 0.375000 0.000000
vt 0.375000 0.000000
vt 0.375000 0.000000
vt 0.375000 0.000000
vt 0.375000 0.000000
vt 0.375000 0.000000
vt 0.375000 0.000000
vt 0.375000 0.000000
vt 0.375000 0.000000
vt 0.375000 0.000000
vt 0.375000 0.000000
vt 0.375000 0.000000
vt 0.375000 0.000000
vt 0.375000 0.000000
vt 0.375000 0.000000
vt 0.375000 0.000000
vt 0.375000 0.000000
vt 0.375000 0.000000
vt 0.375000 0.000000
vt 0.375000 0.000000
vt 0.375000 0.000000
vt 0.375000 0.000000
vt 0.375000 0.000000
vt 0.375000 0.000000
vt 0.375000 0.000000
vt 0.375000 0.000000
vt 0.375000 0.000000
vt 0.375000 0.000000
vt 0.375000 0.000000
vt 0.375000 0.000000
vt 0.375000 0.000000
vt 0.375000 0.000000
vt 0.375000 0.000000
vt 0.375000 0.000000
vt 0.375000 0.000000
vt 0.375000 0.000000
vt 0.375000 0.000000
vt 0.375000 0.000000
vt 0.375000 0.000000
vt 0.375000 0.000000
vt 0.375000 0.000000
vt 0.375000 0.000000
vt 0.375000 0.000000
vt 0.375000 0.000000
vt 0.375000 0.000000
vt 0.375000 0.000000
vt 0.375000 0.000000
vt 0.375000 0.000000
vt 0.375000 0.000000
vt 0.375000 0.000000
vt 0.375000 0.000000
vn -0.7104 0.4976 0.4976
vn -0.4988 0.4985 0.7090
vn -0.4976 0.7104 0.4976
vn -0.7942 0.1885 0.5777
vn -0.5741 0.1815 0.7984
vn -0.7984 -0.1815 0.5741
vn -0.5777 -0.1885 0.7942
vn -0.8847 0.2058 0.4182
vn -0.8958 -0.1872 0.4031
vn -0.9734 0.1621 0.1621
vn -0.9734 -0.1621 0.1621
vn -0.8926 -0.4108 0.1858
vn -0.9734 -0.1621 -0.1621
vn -0.8964 -0.4008 -0.1893
vn -0.8847 -0.2058 -0.4182
vn -0.9734 0.1621 -0.1621
vn -0.8958 0.1872 -0.4031
vn -0.8926 0.4108 -0.1858
vn -0.8964 0.4008 0.1893
vn -0.7998 0.5718 0.1826
vn -0.7906 0.5867 -0.1755
vn -0.5718 0.7998 0.1826
vn -0.5774 0.7945 -0.1882
vn -0.4008 0.8964 0.1893
vn -0.4182 0.8847 -0.2058
vn -0.1621 0.9734 0.1621
vn -0.1621 0.9734 -0.1621
vn -0.2058 0.8847 -0.4182
vn 0.1858 0.8926 -0.4108
vn 0.1621 0.9734 -0.1621
vn -0.1882 0.7945 -0.5774
vn 0.1755 0.7906 -0.5867
vn 0.1826 0.5718 -0.7998
vn -0.1826 0.5718 -0.7998
vn -0.1893 0.4008 -0.8964
vn 0.1893 0.4008 -0.8964
vn 0.1621 0.1621 -0.9734
vn -0.1621 0.1621 -0.9734
vn -0.1621 -0.1621 -0.9734
vn 0.1621 -0.1621 -0.9734
vn -0.1858 -0.4108 -0.8926
vn 0.1858 -0.4108 -0.8926
vn 0.1755 -0.5867 -0.7906
vn -0.1755 -0.5867 -0.7906
vn -0.1885 -0.7942 -0.5777
vn 0.1815 -0.7984 -0.5741
vn 0.1872 -0.8958 -0.4031
vn -0.2058 -0.8847 -0.4182
vn -0.1621 -0.9734 -0.1621
vn 0.1621 -0.9734 -0.1621
vn 0.1621 -0.9734 0.1621
vn -0.1621 -0.9734 0.1621
vn 0.2058 -0.8847 0.4182
vn -0.2058 -0.8847 0.4182
vn -0.1882 -0.7945 0.5774
vn 0.1882 -0.7945 0.5774
vn 0.1815 -0.5741 0.7984
vn -0.1826 -0.5718 0.7998
vn -0.1893 -0.4008 0.8964
vn 0.1872 -0.4031 0.8958
vn 0.1621 -0.1621 0.9734
vn -0.1621 -0.1621 0.9734
vn 0.1621 0.1621 0.9734
vn -0.1621 0.1621 0.9734
vn -0.1858 0.4108 0.8926
vn 0.2058 0.4182 0.8847
vn 0.1882 0.5774 0.7945
vn -0.1755 0.5867 0.7906
vn -0.1885 0.7942 0.5777
vn 0.1826 0.7998 0.5718
vn 0.1893 0.8964 0.4008
vn -0.2058 0.8847 0.4183
vn 0.1621 0.9734 0.1621
vn 0.4182 0.8847 0.2058
vn 0.4031 0.8958 -0.1872
vn 0.5777 0.7942 0.1885
vn 0.5741 0.7984 -0.1815
vn 0.7906 0.5867 0.1755
vn 0.7998 0.5718 -0.1826
vn 0.8926 0.4108 0.1858
vn 0.8964 0.4008 -0.1893
vn 0.7090 0.4985 0.4988
vn 0.7984 0.1815 0.5741
vn 0.8958 0.1872 0.4031
vn 0.7942 -0.1885 0.5777
vn 0.8847 -0.2058 0.4182
vn 0.7104 -0.4976 0.4976
vn 0.7998 -0.5718 0.1826
vn 0.8964 -0.4008 0.1893
vn 0.5867 -0.1755 0.7906
vn 0.4985 -0.4988 0.7090
vn 0.4960 -0.7127 0.4960
vn 0.7906 -0.5867 -0.1755
vn 0.8926 -0.4108 -0.1858
vn 0.5774 -0.7945 0.1882
vn 0.5867 -0.7906 -0.1755
vn 0.7090 -0.4985 -0.4988
vn 0.4985 -0.7090 -0.4988
vn 0.4182 -0.8847 0.2058
vn 0.4108 -0.8926 -0.1858
vn 0.7984 -0.1815 -0.5741
vn 0.8958 -0.1872 -0.4031
vn 0.7942 0.1885 -0.5777
vn 0.8847 0.2058 -0.4182
vn 0.5777 0.1885 -0.7942
vn 0.5741 -0.1815 -0.7984
vn 0.4031 -0.1872 -0.8958
vn 0.4182 0.2058 -0.8847
vn 0.9734 0.1621 -0.1621
vn 0.9734 -0.1621 -0.1621
vn 0.9734 0.1621 0.1621
vn 0.9734 -0.1621 0.1621
vn 0.4988 -0.4985 -0.7090
vn 0.5774 0.1882 0.7945
vn 0.4182 0.2058 0.8847
vn 0.4108 -0.1858 0.8926
vn 0.4960 0.4960 0.7127
vn 0.4976 0.7104 0.4976
vn 0.7104 0.4976 -0.4976
vn 0.4988 0.7090 -0.4985
vn 0.4976 0.4976 -0.7104
vn -0.4031 0.1872 0.8958
vn -0.4182 -0.2058 0.8847
vn -0.4976 -0.4976 0.7104
vn -0.4960 -0.7127 0.4960
vn -0.7090 -0.4985 0.4988
vn -0.7906 -0.5867 0.1755
vn -0.5774 -0.7945 0.1882
vn -0.7998 -0.5718 -0.1826
vn -0.5718 -0.7998 -0.1826
vn -0.7104 -0.4976 -0.4976
vn -0.4976 -0.7104 -0.4976
vn -0.4988 -0.4985 -0.7090
vn -0.7942 -0.1885 -0.5777
vn -0.5741 -0.1815 -0.7984
vn -0.7984 0.1815 -0.5741
vn -0.5777 0.1885 -0.7942
vn -0.7090 0.4985 -0.4988
vn -0.4976 0.4976 -0.7104
vn -0.4960 0.7127 -0.4960
vn -0.4182 0.2058 -0.8847
vn -0.4031 -0.1872 -0.8958
vn -0.4008 -0.8964 -0.1893
vn -0.4182 -0.8847 0.2058
usemtl 材質.020
s 1
f 17/29/13 18/30/14 19/31/15
f 18/30/14 17/29/13 20/32/16 21/33/17
f 21/33/17 20/32/16 22/34/18 23/35/19
f 22/34/18 20/32/16 24/36/20 25/37/21
f 24/36/20 26/38/22 27/39/23 25/37/21
f 25/37/21 27/39/23 28/40/24
f 28/40/24 27/39/23 29/41/25 30/42/26
f 29/41/25 31/43/27 30/42/26
f 29/41/25 32/44/28 33/45/29 31/43/27
f 33/45/29 32/44/28 34/46/30
f 32/44/28 26/38/22 35/47/31 34/46/30
f 35/47/31 36/48/32 37/49/33 34/46/30
f 37/49/33 36/48/32 38/50/34 39/51/35
f 38/50/34 40/52/36 41/53/37 39/51/35
f 41/53/37 40/52/36 42/54/38 43/55/39
f 44/56/40 41/53/37 43/55/39
f 45/57/41 44/56/40 43/55/39 46/58/42
f 47/59/43 44/56/40 45/57/41 48/60/44
f 49/61/45 50/62/46 47/59/43 48/60/44
f 51/63/47 50/62/46 49/61/45 52/64/48
f 53/65/49 54/66/50 51/63/47 52/64/48
f 55/67/51 54/66/50 53/65/49 56/68/52
f 57/69/53 55/67/51 56/68/52 58/70/54
f 59/71/55 60/72/56 57/69/53 58/70/54
f 61/73/57 60/72/56 59/71/55 62/74/58
f 63/75/59 64/76/60 61/73/57 62/74/58
f 65/77/61 64/76/60 63/75/59 66/78/62
f 67/79/63 68/80/64 65/77/61 66/78/62
f 69/81/65 70/82/66 68/80/64 67/79/63
f 71/83/67 70/82/66 69/81/65 72/84/68
f 73/85/69 74/86/70 71/83/67 72/84/68
f 75/87/71 74/86/70 73/85/69 76/88/72
f 77/89/73 78/90/74 75/87/71 76/88/72
f 79/91/75 80/92/76 78/90/74 77/89/73
f 81/93/77 80/92/76 79/91/75 82/94/78
f 83/95/79 84/96/80 81/93/77 82/94/78
f 85/97/81 84/96/80 83/95/79 86/98/82
f 87/99/83 88/100/84 85/97/81 86/98/82
f 42/54/38 88/100/84 87/99/83 89/101/85
f 87/99/83 90/102/86 89/101/85
f 89/101/85 90/102/86 91/103/87 46/58/42
f 91/103/87 90/102/86 92/104/88 93/105/89
f 92/104/88 94/106/90 95/107/91 93/105/89
f 95/107/91 94/106/90 96/108/92 97/109/93
f 98/110/94 99/111/95 100/112/96 96/108/92
f 94/106/90 98/110/94 96/108/92
f 100/112/96 99/111/95 101/113/97 102/114/98
f 101/113/97 103/115/99 104/116/100 105/117/101
f 102/114/98 101/113/97 105/117/101
f 103/115/99 101/113/97 106/118/102 107/119/103
f 103/115/99 107/119/103 108/120/104
f 105/117/101 104/116/100 109/121/105 110/122/106
f 109/121/105 104/116/100 111/123/107 112/124/108
f 113/125/109 109/121/105 112/124/108 114/126/110
f 111/123/107 115/127/111 116/128/112 112/124/108
f 113/125/109 117/129/113 118/130/114 110/122/106
f 109/121/105 113/125/109 110/122/106
f 117/129/113 119/131/115 120/132/116 118/130/114
f 121/133/117 119/131/115 117/129/113 122/134/118
f 123/135/119 124/136/120 121/133/117 122/134/118
f 120/132/116 125/137/121 126/138/122 118/130/114
f 125/137/121 120/132/116 97/109/93
f 125/137/121 127/139/123 128/140/124 126/138/122
f 122/134/118 117/129/113 113/125/109 129/141/125
f 118/130/114 126/138/122 110/122/106
f 126/138/122 128/140/124 105/117/101 110/122/106
f 128/140/124 102/114/98 105/117/101
f 101/113/97 99/111/95 130/142/126 106/118/102
f 130/142/126 131/143/127 132/144/128 106/118/102
f 128/140/124 127/139/123 100/112/96 102/114/98
f 99/111/95 98/110/94 133/145/129 130/142/126
f 133/145/129 98/110/94 134/146/130
f 119/131/115 135/147/131 95/107/91 97/109/93
f 120/132/116 119/131/115 97/109/93
f 96/108/92 127/139/123 125/137/121 97/109/93
f 134/146/130 98/110/94 94/106/90 92/104/88
f 93/105/89 95/107/91 135/147/131 136/148/132
f 135/147/131 137/149/133 136/148/132
f 79/91/75 131/143/127 82/94/78
f 80/92/76 138/150/134 139/151/135 78/90/74
f 132/144/128 131/143/127 79/91/75 77/89/73
f 78/90/74 139/151/135 75/87/71
f 132/144/128 77/89/73 76/88/72
f 74/86/70 140/152/136 141/153/137 71/83/67
f 140/152/136 142/154/138 141/153/137
f 141/153/137 142/154/138 143/155/139 144/156/140
f 144/156/140 143/155/139 145/157/141 146/158/142
f 146/158/142 145/157/141 147/159/143 148/160/144
f 147/159/143 149/161/145 148/160/144
f 147/159/143 150/162/146 151/163/147 149/161/145
f 150/162/146 152/164/148 153/165/149 151/163/147
f 152/164/148 154/166/150 155/167/151 153/165/149
f 155/167/151 154/166/150 156/168/152
f 153/165/149 157/169/153 158/170/154 151/163/147
f 159/171/155 160/172/156 144/156/140 146/158/142
f 107/119/103 73/85/69 72/84/68 108/120/104
f 144/156/140 160/172/156 70/82/66 71/83/67
f 141/153/137 144/156/140 71/83/67
f 72/84/68 69/81/65 115/127/111 111/123/107
f 108/120/104 72/84/68 111/123/107
f 115/127/111 69/81/65 67/79/63
f 68/80/64 160/172/156 159/171/155 65/77/61
f 116/128/112 115/127/111 67/79/63 66/78/62
f 159/171/155 64/76/60 65/77/61
f 63/75/59 116/128/112 66/78/62
f 159/171/155 146/158/142 148/160/144 61/73/57
f 64/76/60 159/171/155 61/73/57
f 116/128/112 63/75/59 62/74/58 114/126/110
f 112/124/108 116/128/112 114/126/110
f 62/74/58 59/71/55 129/141/125 114/126/110
f 149/161/145 151/163/147 158/170/154 57/69/53
f 60/72/56 149/161/145 57/69/53
f 58/70/54 123/135/119 122/134/118 129/141/125
f 59/71/55 58/70/54 129/141/125
f 158/170/154 55/67/51 57/69/53
f 56/68/52 123/135/119 58/70/54
f 158/170/154 157/169/153 54/66/50 55/67/51
f 53/65/49 124/136/120 123/135/119 56/68/52
f 124/136/120 53/65/49 52/64/48
f 153/165/149 155/167/151 50/62/46 51/63/47
f 157/169/153 153/165/149 51/63/47
f 52/64/48 49/61/45 137/149/133 121/133/117
f 124/136/120 52/64/48 121/133/117
f 50/62/46 155/167/151 156/168/152 47/59/43
f 137/149/133 49/61/45 48/60/44 136/148/132
f 91/103/87 45/57/41 46/58/42
f 43/55/39 42/54/38 89/101/85 46/58/42
f 40/52/36 38/50/34 19/31/15 85/97/81
f 88/100/84 40/52/36 85/97/81
f 33/45/29 152/164/148 150/162/146 31/43/27
f 145/157/141 143/155/139 28/40/24 30/42/26
f 27/39/23 26/38/22 32/44/28 29/41/25
f 139/151/135 138/150/134 21/33/17 23/35/19
f 20/32/16 17/29/13 36/48/32 35/47/31
f 24/36/20 20/32/16 35/47/31
f 18/30/14 21/33/17 138/150/134 81/93/77
f 84/96/80 18/30/14 81/93/77
f 23/35/19 22/34/18 142/154/138 140/152/136
f 36/48/32 17/29/13 19/31/15 38/50/34
f 26/38/22 24/36/20 35/47/31
f 142/154/138 22/34/18 25/37/21 28/40/24
f 143/155/139 142/154/138 28/40/24
f 154/166/150 37/49/33 39/51/35 156/168/152
f 154/166/150 152/164/148 33/45/29 34/46/30
f 37/49/33 154/166/150 34/46/30
f 150/162/146 147/159/143 145/157/141 30/42/26
f 31/43/27 150/162/146 30/42/26
f 19/31/15 18/30/14 84/96/80 85/97/81
f 138/150/134 80/92/76 81/93/77
f 23/35/19 140/152/136 74/86/70 75/87/71
f 139/151/135 23/35/19 75/87/71
f 40/52/36 88/100/84 42/54/38
f 70/82/66 160/172/156 68/80/64
f 39/51/35 41/53/37 44/56/40 47/59/43
f 156/168/152 39/51/35 47/59/43
f 54/66/50 157/169/153 51/63/47
f 148/160/144 149/161/145 60/72/56 61/73/57
f 86/98/82 83/95/79 133/145/129 134/146/130
f 83/95/79 82/94/78 131/143/127 130/142/126
f 133/145/129 83/95/79 130/142/126
f 132/144/128 76/88/72 73/85/69 107/119/103
f 106/118/102 132/144/128 107/119/103
f 87/99/83 86/98/82 134/146/130 92/104/88
f 90/102/86 87/99/83 92/104/88
f 100/112/96 127/139/123 96/108/92
f 104/116/100 103/115/99 108/120/104 111/123/107
f 45/57/41 91/103/87 93/105/89 136/148/132
f 48/60/44 45/57/41 136/148/132
f 137/149/133 135/147/131 119/131/115 121/133/117
f 129/141/125 113/125/109 114/126/110
