# Blender v2.90.0 OBJ File: 'player.blend'
# www.blender.org
mtllib player_body_beHit.mtl
o Cube.002
v 1.000000 5.000000 -0.999999
v -1.000000 5.000000 -0.999999
v -1.000000 5.000000 1.000001
v 1.000000 5.000000 1.000001
v 1.000000 2.500000 1.000000
v -1.000000 2.500000 1.000000
v -1.000000 2.500000 -1.000000
v 1.000000 2.500000 -1.000000
vt 0.672644 0.000000
vt 0.672644 0.473101
vt 0.336322 0.473101
vt 0.336322 0.000000
vt 0.000000 0.946203
vt 0.000000 0.473101
vt 0.336322 0.946203
vt 0.375000 0.000000
vt 0.625000 0.000000
vt 0.625000 0.250000
vt 0.375000 0.250000
vt 0.125000 0.500000
vt 0.375000 0.500000
vt 0.375000 0.750000
vt 0.125000 0.750000
vt 0.336322 0.473101
vt 0.000000 0.473101
vt 0.000000 0.000000
vt 0.336322 0.000000
vt 0.000000 0.000000
vt 1.000000 0.000000
vt 1.000000 1.000000
vt 0.000000 1.000000
vn 0.0000 1.0000 0.0000
vn 0.0000 -0.0000 1.0000
vn -1.0000 0.0000 0.0000
vn 0.0000 -1.0000 -0.0000
vn 1.0000 0.0000 0.0000
vn 0.0000 0.0000 -1.0000
usemtl Material.003
s off
f 1/1/1 2/2/1 3/3/1 4/4/1
f 5/5/2 4/6/2 3/3/2 6/7/2
f 6/8/3 3/9/3 2/10/3 7/11/3
f 7/12/4 8/13/4 5/14/4 6/15/4
f 8/16/5 1/17/5 4/18/5 5/19/5
f 7/20/6 2/21/6 1/22/6 8/23/6
