# Blender v2.90.0 OBJ File: 'untitled.blend'
# www.blender.org
mtllib shoperobj.mtl
o Mball
v 1.731632 -1.891155 -1.058845
v 1.058844 -1.891155 -1.731632
v 1.058845 -1.134693 -1.731632
v 1.731632 -1.134693 -1.058845
v 0.999930 -1.891155 -1.764741
v 0.999930 -1.134693 -1.764741
v 0.352948 -1.891155 -2.000000
v 0.352948 -1.134693 -2.000000
v -0.352948 -1.891155 -2.000000
v -0.352948 -1.134693 -2.000000
v -0.999930 -1.891155 -1.764741
v -0.999930 -1.134693 -1.764741
v -0.352948 -2.647617 -1.870826
v -0.710493 -2.647617 -1.764741
v -1.058845 -2.647617 -1.580709
v -1.058845 -1.891155 -1.731632
v -1.580709 -2.647617 -1.058846
v -1.731632 -1.891155 -1.058845
v -1.764741 -2.647617 -0.710493
v -1.764741 -1.891155 -0.999930
v -1.870826 -2.647617 -0.352948
v -2.000000 -1.891155 -0.352948
v -1.870826 -2.647617 0.352948
v -2.000000 -1.891155 0.352948
v -1.764741 -2.647617 0.710493
v -1.764741 -1.891155 0.999930
v -1.580709 -2.647617 1.058845
v -1.731632 -1.891155 1.058845
v -1.414301 -3.404079 0.352947
v -1.058845 -3.404079 0.999929
v -1.058845 -3.358465 1.058844
v -1.764741 -2.893838 0.352948
v -0.999930 -3.404079 1.058844
v -0.352948 -3.404079 1.414300
v -0.352948 -2.893838 1.764740
v -0.710493 -2.647617 1.764740
v -1.058845 -2.647617 1.580709
v 0.352948 -3.404079 1.414300
v 0.352948 -2.893838 1.764740
v 0.999930 -3.404079 1.058844
v 1.058844 -3.358465 1.058844
v 1.058844 -2.647617 1.580709
v 0.710493 -2.647617 1.764740
v 1.580709 -2.647617 1.058845
v 1.414301 -3.404079 0.352947
v 1.764741 -2.893838 0.352948
v 1.764741 -2.647617 0.710493
v 1.058844 -3.404079 0.999929
v 1.870825 -2.647617 0.352948
v 1.764741 -2.893838 -0.352948
v 1.870825 -2.647617 -0.352948
v 1.764741 -2.647617 -0.710493
v 1.414301 -3.404079 -0.352949
v 1.058844 -3.404079 -0.999931
v 1.058844 -3.358465 -1.058846
v 1.580709 -2.647617 -1.058846
v 0.999930 -3.404079 -1.058846
v 0.352948 -3.404079 -1.414302
v 0.352948 -2.893838 -1.764741
v 0.710493 -2.647617 -1.764741
v 1.058844 -2.647617 -1.580709
v -0.352948 -2.893838 -1.764741
v -0.352948 -3.404079 -1.414302
v 0.352948 -2.647617 -1.870826
v 0.352948 -3.708155 -1.058846
v -0.352948 -3.708155 -1.058846
v -0.999930 -3.404079 -1.058846
v -0.352948 -4.000000 -0.352949
v -1.058845 -3.708155 -0.352949
v -1.058845 -3.404079 -0.999931
v -1.414301 -3.404079 -0.352949
v -1.058845 -3.708155 0.352947
v -0.352948 -4.000000 0.352947
v 0.352948 -4.000000 -0.352949
v 0.352948 -4.000000 0.352947
v 1.058844 -3.708155 -0.352949
v 1.058844 -3.708155 0.352947
v 0.352948 -3.708155 1.058844
v -0.352948 -3.708155 1.058844
v -1.058845 -3.358465 -1.058846
v 1.764741 -1.891155 -0.999930
v 2.000000 -1.891155 -0.352948
v 2.000000 -1.891155 0.352948
v 2.000000 -1.134693 -0.352948
v 2.000000 -1.134693 0.352948
v 1.764741 -1.134693 -0.999930
v 1.764741 -1.134693 0.999930
v 1.764741 -1.891155 0.999930
v 1.764741 -0.378231 0.999930
v 2.000000 -0.378231 0.352948
v 1.764741 0.378231 0.999930
v 2.000000 0.378231 0.352948
v 1.731632 -0.378231 1.058845
v 1.731632 0.378231 1.058845
v 1.058845 0.378231 1.731632
v 1.058845 -0.378231 1.731632
v 0.999930 -0.378231 1.764741
v 0.999930 0.378231 1.764741
v 0.352948 0.378231 2.000000
v 0.352948 -0.378231 2.000000
v -0.352948 -0.378231 2.000000
v -0.352948 0.378231 2.000000
v -0.999930 -0.378231 1.764741
v -0.999930 0.378231 1.764741
v -1.058845 0.378231 1.731632
v -1.058845 -0.378231 1.731632
v -1.731632 -0.378231 1.058845
v -1.731632 0.378231 1.058845
v -1.764741 0.378231 0.999930
v -1.764741 -0.378231 0.999930
v -2.000000 -0.378231 0.352948
v -2.000000 0.378231 0.352948
v -2.000000 0.378231 -0.352948
v -2.000000 -0.378231 -0.352948
v -1.764741 0.378231 -0.999930
v -1.764741 -0.378231 -0.999930
v -1.731632 -0.378231 -1.058845
v -1.731632 0.378231 -1.058845
v -1.058845 0.378231 -1.731632
v -1.058845 -0.378231 -1.731632
v -0.999930 -0.378231 -1.764741
v -0.999930 0.378231 -1.764741
v -0.352948 0.378231 -2.000000
v -0.352948 -0.378231 -2.000000
v 0.352948 0.378231 -2.000000
v 0.352948 -0.378231 -2.000000
v 0.999930 -0.378231 -1.764741
v 0.999930 0.378231 -1.764741
v 1.058845 0.378231 -1.731632
v 1.058845 -0.378231 -1.731632
v 1.731632 -0.378231 -1.058845
v 1.731632 0.378231 -1.058845
v 1.764741 0.378231 -0.999930
v 1.764741 -0.378231 -0.999930
v 2.000000 -0.378231 -0.352948
v 2.000000 0.378231 -0.352948
v 1.764741 1.134693 -0.999930
v 2.000000 1.134693 -0.352948
v 2.000000 1.134693 0.352948
v 2.000000 1.891155 -0.352948
v 2.000000 1.891155 0.352948
v 1.764741 1.891155 0.999930
v 1.764741 1.134693 0.999930
v 1.731632 1.134693 1.058845
v 1.731632 1.891155 1.058845
v 1.058845 1.891155 1.731632
v 1.058845 1.134693 1.731632
v 0.999930 1.134693 1.764741
v 0.999930 1.891155 1.764741
v 0.352948 1.891155 2.000000
v 0.352948 1.134693 2.000000
v -0.352948 1.134693 2.000000
v -0.352948 1.891155 2.000000
v -0.999930 1.134693 1.764741
v -0.999930 1.891155 1.764741
v -1.058844 1.891155 1.731632
v -1.058845 1.134693 1.731632
v -1.058844 2.647617 1.580709
v -0.710493 2.647617 1.764741
v -1.731632 1.891155 1.058845
v -1.580709 2.647617 1.058846
v -1.764741 2.647617 0.710493
v -1.764741 1.891155 0.999930
v -2.000000 1.891155 0.352948
v -1.870825 2.647617 0.352948
v -1.870825 2.647617 -0.352948
v -2.000000 1.891155 -0.352948
v -2.000000 1.134693 -0.352948
v -2.000000 1.134693 0.352948
v -1.764741 1.891155 -0.999930
v -1.764741 1.134693 -0.999930
v -1.731632 1.134693 -1.058845
v -1.731632 1.891155 -1.058845
v -1.058844 1.891155 -1.731632
v -1.058845 1.134693 -1.731632
v -0.999930 1.134693 -1.764741
v -0.999930 1.891155 -1.764741
v -0.352948 1.891155 -2.000000
v -0.352948 1.134693 -2.000000
v 0.352948 1.891155 -2.000000
v 0.352948 1.134693 -2.000000
v 0.352948 2.647617 -1.870825
v -0.352948 2.647617 -1.870825
v 0.999930 1.891155 -1.764741
v 0.710493 2.647617 -1.764740
v 1.058845 2.647617 -1.580709
v 1.058845 1.891155 -1.731632
v 1.731632 1.891155 -1.058845
v 1.580709 2.647617 -1.058845
v 1.764741 2.647617 -0.710493
v 1.764741 1.891155 -0.999930
v 1.870826 2.647617 -0.352948
v 1.764741 2.893838 -0.352948
v 1.764741 2.893838 0.352948
v 1.870826 2.647617 0.352948
v 1.414301 3.404079 -0.352947
v 1.414301 3.404079 0.352949
v 1.580709 2.647617 1.058846
v 1.764741 2.647617 0.710493
v 1.058845 3.404079 0.999931
v 1.058845 3.358465 1.058846
v 0.999930 3.404079 1.058846
v 0.710493 2.647617 1.764741
v 1.058845 2.647617 1.580709
v 0.352948 3.404079 1.414302
v 0.352948 2.893838 1.764741
v -0.352948 2.893838 1.764741
v -0.352948 3.404079 1.414302
v 0.352948 2.647617 1.870826
v -0.352948 2.647617 1.870826
v 0.352948 3.708155 1.058846
v -0.352948 3.708155 1.058846
v -0.999930 3.404079 1.058846
v -0.352948 4.000000 0.352949
v -1.058844 3.708155 0.352949
v -1.058844 3.404079 0.999931
v -1.414301 3.404079 0.352949
v -1.058844 3.708155 -0.352947
v -1.414301 3.404079 -0.352947
v -1.058844 3.404079 -0.999929
v -0.352948 4.000000 -0.352947
v -0.352948 3.708155 -1.058844
v -0.999930 3.404079 -1.058844
v 0.352948 4.000000 -0.352947
v 0.352948 3.708155 -1.058844
v 0.352948 3.404079 -1.414300
v -0.352948 3.404079 -1.414300
v 0.999930 3.404079 -1.058844
v 0.352948 2.893838 -1.764740
v -0.352948 2.893838 -1.764740
v -0.710493 2.647617 -1.764740
v -1.058844 2.647617 -1.580709
v -1.058844 3.358465 -1.058844
v -1.580709 2.647617 -1.058845
v 0.352948 4.000000 0.352949
v 1.058845 3.708155 0.352949
v 1.058845 3.708155 -0.352947
v -1.764741 2.647617 -0.710493
v -1.764741 2.893838 -0.352948
v -1.764741 2.893838 0.352948
v -1.058844 3.358465 1.058846
v 1.058845 3.404079 -0.999929
v 1.731632 1.134693 -1.058845
v 1.058845 3.358465 -1.058844
v 1.058845 1.134693 -1.731632
v 0.999930 1.134693 -1.764741
v -1.764741 1.134693 0.999930
v -1.731632 1.134693 1.058845
v -1.058845 -1.134693 -1.731632
v -1.731632 -1.134693 -1.058845
v -1.764741 -1.134693 -0.999930
v -2.000000 -1.134693 -0.352948
v -2.000000 -1.134693 0.352948
v -1.764741 -1.134693 0.999930
v -1.731632 -1.134693 1.058845
v -1.058845 -1.134693 1.731632
v -0.999930 -1.134693 1.764741
v -1.058845 -1.891155 1.731632
v -0.999930 -1.891155 1.764741
v -0.352948 -1.891155 2.000000
v -0.352948 -1.134693 2.000000
v 0.352948 -1.891155 2.000000
v 0.352948 -1.134693 2.000000
v 0.999930 -1.891155 1.764741
v 0.999930 -1.134693 1.764741
v 1.058844 -1.891155 1.731632
v 1.058845 -1.134693 1.731632
v 1.731632 -1.891155 1.058845
v 1.731632 -1.134693 1.058845
v 0.352948 -2.647617 1.870825
v -0.352948 -2.647617 1.870825
v -1.764741 -2.893838 -0.352948
vn 0.8008 -0.0799 -0.5936
vn 0.5936 -0.0799 -0.8008
vn 0.6041 -0.0000 -0.7969
vn 0.7969 -0.0000 -0.6041
vn 0.4137 -0.0811 -0.9068
vn 0.4172 0.0000 -0.9088
vn 0.1665 -0.0781 -0.9829
vn 0.1735 0.0000 -0.9848
vn -0.1665 -0.0781 -0.9829
vn -0.1735 0.0000 -0.9848
vn -0.4137 -0.0811 -0.9068
vn -0.4172 0.0000 -0.9088
vn -0.1473 -0.2738 -0.9504
vn -0.3795 -0.3328 -0.8632
vn -0.5544 -0.3374 -0.7608
vn -0.5936 -0.0799 -0.8008
vn -0.7625 -0.3351 -0.5534
vn -0.8008 -0.0799 -0.5936
vn -0.8667 -0.3301 -0.3740
vn -0.9068 -0.0811 -0.4137
vn -0.9504 -0.2738 -0.1473
vn -0.9829 -0.0781 -0.1665
vn -0.9504 -0.2738 0.1473
vn -0.9829 -0.0781 0.1665
vn -0.8667 -0.3301 0.3740
vn -0.9068 -0.0811 0.4137
vn -0.7625 -0.3351 0.5534
vn -0.8008 -0.0799 0.5936
vn -0.7344 -0.6521 0.1881
vn -0.5767 -0.7005 0.4204
vn -0.5794 -0.5681 0.5844
vn -0.8535 -0.4914 0.1733
vn -0.4130 -0.7052 0.5763
vn -0.1880 -0.6513 0.7352
vn -0.1779 -0.4928 0.8518
vn -0.3795 -0.3328 0.8632
vn -0.5544 -0.3374 0.7608
vn 0.1880 -0.6513 0.7352
vn 0.1779 -0.4928 0.8518
vn 0.4088 -0.7073 0.5767
vn 0.5794 -0.5681 0.5844
vn 0.5544 -0.3374 0.7608
vn 0.3795 -0.3328 0.8632
vn 0.7625 -0.3351 0.5534
vn 0.7344 -0.6521 0.1881
vn 0.8535 -0.4914 0.1733
vn 0.8667 -0.3301 0.3740
vn 0.5647 -0.7086 0.4231
vn 0.9504 -0.2738 0.1473
vn 0.8535 -0.4914 -0.1733
vn 0.9504 -0.2738 -0.1473
vn 0.8667 -0.3301 -0.3740
vn 0.7344 -0.6521 -0.1881
vn 0.5767 -0.7005 -0.4204
vn 0.5794 -0.5681 -0.5844
vn 0.7625 -0.3351 -0.5534
vn 0.4130 -0.7052 -0.5763
vn 0.1880 -0.6513 -0.7352
vn 0.1779 -0.4928 -0.8518
vn 0.3795 -0.3328 -0.8632
vn 0.5544 -0.3374 -0.7608
vn -0.1779 -0.4928 -0.8518
vn -0.1880 -0.6513 -0.7352
vn 0.1473 -0.2738 -0.9504
vn 0.1805 -0.8408 -0.5104
vn -0.1881 -0.8425 -0.5048
vn -0.4088 -0.7073 -0.5767
vn -0.1922 -0.9624 -0.1919
vn -0.5056 -0.8422 -0.1870
vn -0.5647 -0.7086 -0.4231
vn -0.7344 -0.6521 -0.1881
vn -0.5106 -0.8406 0.1808
vn -0.1918 -0.9625 0.1918
vn 0.1918 -0.9625 -0.1918
vn 0.1922 -0.9624 0.1919
vn 0.5106 -0.8406 -0.1808
vn 0.5056 -0.8422 0.1870
vn 0.1881 -0.8425 0.5048
vn -0.1805 -0.8408 0.5104
vn -0.5794 -0.5681 -0.5844
vn 0.9068 -0.0811 -0.4137
vn 0.9829 -0.0781 -0.1665
vn 0.9829 -0.0781 0.1665
vn 0.9848 0.0000 -0.1735
vn 0.9848 0.0000 0.1735
vn 0.9088 0.0000 -0.4172
vn 0.9088 0.0000 0.4172
vn 0.9068 -0.0811 0.4137
vn 0.7969 -0.0000 0.6041
vn 0.6041 -0.0000 0.7969
vn 0.4172 -0.0000 0.9088
vn 0.1735 -0.0000 0.9848
vn -0.1735 -0.0000 0.9848
vn -0.4172 -0.0000 0.9088
vn -0.6041 -0.0000 0.7969
vn -0.7969 -0.0000 0.6041
vn -0.9088 -0.0000 0.4172
vn -0.9848 0.0000 0.1735
vn -0.9848 0.0000 -0.1735
vn -0.9088 0.0000 -0.4172
vn -0.7969 0.0000 -0.6041
vn -0.6041 0.0000 -0.7969
vn 0.9829 0.0781 -0.1665
vn 0.9829 0.0781 0.1665
vn 0.9068 0.0811 0.4137
vn 0.8008 0.0799 0.5936
vn 0.5936 0.0799 0.8008
vn 0.4137 0.0811 0.9068
vn 0.1665 0.0781 0.9829
vn -0.1665 0.0781 0.9829
vn -0.4137 0.0811 0.9068
vn -0.5936 0.0799 0.8008
vn -0.5544 0.3374 0.7608
vn -0.3795 0.3328 0.8632
vn -0.8008 0.0799 0.5936
vn -0.7625 0.3351 0.5534
vn -0.8667 0.3301 0.3740
vn -0.9068 0.0811 0.4137
vn -0.9829 0.0781 0.1665
vn -0.9504 0.2738 0.1473
vn -0.9504 0.2738 -0.1473
vn -0.9829 0.0781 -0.1665
vn -0.9068 0.0811 -0.4137
vn -0.8008 0.0799 -0.5936
vn -0.5936 0.0799 -0.8008
vn -0.4137 0.0811 -0.9068
vn -0.1665 0.0781 -0.9829
vn 0.1665 0.0781 -0.9829
vn 0.1473 0.2738 -0.9504
vn -0.1473 0.2738 -0.9504
vn 0.4137 0.0811 -0.9068
vn 0.3795 0.3328 -0.8632
vn 0.5544 0.3374 -0.7608
vn 0.5936 0.0799 -0.8008
vn 0.8008 0.0799 -0.5936
vn 0.7625 0.3351 -0.5534
vn 0.8667 0.3301 -0.3740
vn 0.9068 0.0811 -0.4137
vn 0.9504 0.2738 -0.1473
vn 0.8535 0.4914 -0.1733
vn 0.8535 0.4914 0.1733
vn 0.9504 0.2738 0.1473
vn 0.7344 0.6521 -0.1881
vn 0.7344 0.6521 0.1881
vn 0.7625 0.3351 0.5534
vn 0.8667 0.3301 0.3740
vn 0.5767 0.7005 0.4204
vn 0.5794 0.5681 0.5844
vn 0.4130 0.7052 0.5763
vn 0.3795 0.3328 0.8632
vn 0.5544 0.3374 0.7608
vn 0.1880 0.6513 0.7352
vn 0.1779 0.4928 0.8518
vn -0.1779 0.4928 0.8518
vn -0.1880 0.6513 0.7352
vn 0.1473 0.2738 0.9504
vn -0.1473 0.2738 0.9504
vn 0.1805 0.8408 0.5104
vn -0.1881 0.8425 0.5048
vn -0.4088 0.7073 0.5767
vn -0.1922 0.9624 0.1919
vn -0.5056 0.8422 0.1870
vn -0.5647 0.7086 0.4231
vn -0.7344 0.6521 0.1881
vn -0.5106 0.8406 -0.1808
vn -0.7344 0.6521 -0.1881
vn -0.5767 0.7005 -0.4204
vn -0.1918 0.9625 -0.1918
vn -0.1805 0.8408 -0.5104
vn -0.4130 0.7052 -0.5763
vn 0.1922 0.9624 -0.1919
vn 0.1881 0.8425 -0.5048
vn 0.1880 0.6513 -0.7352
vn -0.1880 0.6513 -0.7352
vn 0.4088 0.7073 -0.5767
vn 0.1779 0.4928 -0.8518
vn -0.1779 0.4928 -0.8518
vn -0.3795 0.3328 -0.8632
vn -0.5544 0.3374 -0.7608
vn -0.5794 0.5681 -0.5844
vn -0.7625 0.3351 -0.5534
vn 0.1918 0.9625 0.1918
vn 0.5106 0.8406 0.1808
vn 0.5056 0.8422 -0.1870
vn -0.8667 0.3301 -0.3740
vn -0.8535 0.4914 -0.1733
vn -0.8535 0.4914 0.1733
vn -0.5794 0.5681 0.5844
vn 0.5647 0.7086 -0.4231
vn 0.5794 0.5681 -0.5844
vn -0.5936 -0.0799 0.8008
vn -0.4137 -0.0811 0.9068
vn -0.1665 -0.0781 0.9829
vn 0.1665 -0.0781 0.9829
vn 0.4137 -0.0811 0.9068
vn 0.5936 -0.0799 0.8008
vn 0.8008 -0.0799 0.5936
vn 0.1473 -0.2738 0.9504
vn -0.1473 -0.2738 0.9504
vn -0.8535 -0.4914 -0.1733
g Mball_Mball_None
usemtl None
s 1
f 1//1 2//2 3//3 4//4
f 3//3 2//2 5//5 6//6
f 5//5 7//7 8//8 6//6
f 8//8 7//7 9//9 10//10
f 10//10 9//9 11//11 12//12
f 9//9 13//13 14//14 11//11
f 14//14 15//15 16//16 11//11
f 16//16 15//15 17//17 18//18
f 17//17 19//19 20//20 18//18
f 20//20 19//19 21//21 22//22
f 22//22 21//21 23//23 24//24
f 23//23 25//25 26//26 24//24
f 26//26 25//25 27//27 28//28
f 29//29 30//30 31//31 27//27
f 25//25 32//32 29//29 27//27
f 31//31 30//30 33//33
f 33//33 34//34 35//35 36//36
f 37//37 31//31 33//33 36//36
f 38//38 39//39 35//35 34//34
f 40//40 41//41 42//42 43//43
f 39//39 38//38 40//40 43//43
f 42//42 41//41 44//44
f 45//45 46//46 47//47 44//44
f 41//41 48//48 45//45 44//44
f 47//47 46//46 49//49
f 46//46 50//50 51//51 49//49
f 50//50 52//52 51//51
f 53//53 54//54 55//55 56//56
f 52//52 50//50 53//53 56//56
f 55//55 54//54 57//57
f 57//57 58//58 59//59 60//60
f 61//61 55//55 57//57 60//60
f 62//62 59//59 58//58 63//63
f 64//64 59//59 62//62 13//13
f 58//58 65//65 66//66 63//63
f 63//63 66//66 67//67
f 68//68 69//69 70//70 67//67
f 66//66 68//68 67//67
f 70//70 69//69 71//71
f 71//71 69//69 72//72 29//29
f 69//69 68//68 73//73 72//72
f 68//68 74//74 75//75 73//73
f 74//74 76//76 77//77 75//75
f 77//77 76//76 53//53 45//45
f 75//75 77//77 48//48 40//40
f 78//78 75//75 40//40
f 73//73 75//75 78//78 79//79
f 70//70 80//80 67//67
f 66//66 65//65 74//74 68//68
f 59//59 64//64 60//60
f 65//65 58//58 57//57
f 55//55 61//61 56//56
f 76//76 54//54 53//53
f 81//81 52//52 56//56 1//1
f 49//49 51//51 82//82 83//83
f 83//83 82//82 84//84 85//85
f 82//82 81//81 86//86 84//84
f 87//87 88//88 83//83 85//85
f 89//87 87//87 85//85 90//85
f 91//87 89//87 90//85 92//85
f 93//89 89//87 91//87 94//89
f 95//90 96//90 93//89 94//89
f 97//91 96//90 95//90 98//91
f 99//92 100//92 97//91 98//91
f 101//93 100//92 99//92 102//93
f 103//94 101//93 102//93 104//94
f 105//95 106//95 103//94 104//94
f 107//96 106//95 105//95 108//96
f 109//97 110//97 107//96 108//96
f 111//98 110//97 109//97 112//98
f 113//99 114//99 111//98 112//98
f 115//100 116//100 114//99 113//99
f 117//101 116//100 115//100 118//101
f 119//102 120//102 117//101 118//101
f 121//12 120//102 119//102 122//12
f 123//10 124//10 121//12 122//12
f 125//8 126//8 124//10 123//10
f 127//6 126//8 125//8 128//6
f 129//3 130//3 127//6 128//6
f 131//4 130//3 129//3 132//4
f 133//86 134//86 131//4 132//4
f 135//84 134//86 133//86 136//84
f 136//84 133//86 137//86 138//84
f 92//85 136//84 138//84 139//85
f 139//85 138//84 140//103 141//104
f 142//105 143//87 139//85 141//104
f 144//89 143//87 142//105 145//106
f 146//107 147//90 144//89 145//106
f 148//91 147//90 146//107 149//108
f 150//109 151//92 148//91 149//108
f 152//93 151//92 150//109 153//110
f 154//94 152//93 153//110 155//111
f 156//112 157//95 154//94 155//111
f 158//113 156//112 155//111 159//114
f 160//115 156//112 158//113 161//116
f 162//117 163//118 160//115 161//116
f 164//119 163//118 162//117 165//120
f 166//121 167//122 164//119 165//120
f 167//122 168//99 169//98 164//119
f 170//123 171//100 168//99 167//122
f 172//101 171//100 170//123 173//124
f 174//125 175//102 172//101 173//124
f 176//12 175//102 174//125 177//126
f 178//127 179//10 176//12 177//126
f 180//128 181//8 179//10 178//127
f 182//129 180//128 178//127 183//130
f 184//131 180//128 182//129 185//132
f 186//133 187//134 184//131 185//132
f 188//135 187//134 186//133 189//136
f 190//137 191//138 188//135 189//136
f 140//103 191//138 190//137 192//139
f 190//137 193//140 192//139
f 192//139 193//140 194//141 195//142
f 194//141 193//140 196//143 197//144
f 198//145 199//146 194//141 197//144
f 200//147 201//148 198//145 197//144
f 201//148 200//147 202//149
f 203//150 204//151 201//148 202//149
f 205//152 206//153 203//150 202//149
f 207//154 206//153 205//152 208//155
f 209//156 206//153 207//154 210//157
f 210//157 207//154 159//114
f 205//152 211//158 212//159 208//155
f 208//155 212//159 213//160
f 214//161 215//162 216//163 213//160
f 212//159 214//161 213//160
f 216//163 215//162 217//164
f 215//162 218//165 219//166 217//164
f 218//165 220//167 219//166
f 218//165 221//168 222//169 223//170
f 220//167 218//165 223//170
f 224//171 225//172 222//169 221//168
f 222//169 225//172 226//173 227//174
f 226//173 225//172 228//175
f 226//173 229//176 230//177 227//174
f 231//178 232//179 233//180 223//170
f 227//174 230//177 231//178 223//170
f 233//180 232//179 234//181
f 230//177 183//130 231//178
f 235//182 224//171 221//168 214//161
f 236//183 237//184 224//171 235//182
f 222//169 227//174 223//170
f 233//180 220//167 223//170
f 234//181 238//185 239//186 219//166
f 220//167 233//180 234//181 219//166
f 239//186 238//185 166//121
f 219//166 239//186 240//187 217//164
f 214//161 221//168 218//165 215//162
f 216//163 241//188 213//160
f 211//158 235//182 214//161 212//159
f 206//153 209//156 203//150
f 211//158 205//152 202//149
f 236//183 235//182 211//158 202//149
f 200//147 236//183 202//149
f 201//148 204//151 198//145
f 236//183 200//147 197//144
f 196//143 237//184 236//183 197//144
f 242//189 237//184 196//143
f 194//141 199//146 195//142
f 191//138 137//86 243//4 188//135
f 189//136 244//190 242//189 196//143
f 193//140 190//137 189//136 196//143
f 242//189 244//190 228//175
f 243//4 245//3 187//134 188//135
f 186//133 244//190 189//136
f 187//134 245//3 246//6 184//131
f 185//132 229//176 226//173 228//175
f 244//190 186//133 185//132 228//175
f 182//129 229//176 185//132
f 230//177 229//176 182//129 183//130
f 183//130 178//127 177//126 231//178
f 177//126 174//125 232//179 231//178
f 232//179 174//125 173//124 234//181
f 173//124 170//123 238//185 234//181
f 240//187 239//186 166//121 165//120
f 169//98 247//97 163//118 164//119
f 162//117 240//187 165//120
f 163//118 247//97 248//96 160//115
f 161//116 241//188 216//163 217//164
f 240//187 162//117 161//116 217//164
f 158//113 241//188 161//116
f 159//114 207//154 208//155 213//160
f 241//188 158//113 159//114 213//160
f 155//111 153//110 210//157 159//114
f 153//110 150//109 209//156 210//157
f 149//108 146//107 204//151 203//150
f 204//151 146//107 145//106 198//145
f 145//106 142//105 199//146 198//145
f 199//146 142//105 141//104 195//142
f 141//104 140//103 192//139 195//142
f 134//86 86//86 4//4 131//4
f 137//86 133//86 132//4 243//4
f 245//3 129//3 128//6 246//6
f 128//6 125//8 181//8 246//6
f 181//8 125//8 123//10 179//10
f 179//10 123//10 122//12 176//12
f 120//102 249//102 250//101 117//101
f 175//102 119//102 118//101 172//101
f 250//101 251//100 116//100 117//101
f 118//101 115//100 171//100 172//101
f 171//100 115//100 113//99 168//99
f 114//99 252//99 253//98 111//98
f 168//99 113//99 112//98 169//98
f 253//98 254//97 110//97 111//98
f 112//98 109//97 247//97 169//98
f 110//97 254//97 255//96 107//96
f 247//97 109//97 108//96 248//96
f 108//96 105//95 157//95 248//96
f 106//95 256//95 257//94 103//94
f 256//95 258//191 259//192 257//94
f 28//28 258//191 256//95 255//96
f 259//192 260//193 261//93 257//94
f 260//193 262//194 263//92 261//93
f 263//92 262//194 264//195 265//91
f 264//195 266//196 267//90 265//91
f 267//90 266//196 268//197 269//89
f 262//194 270//198 43//43 264//195
f 271//199 270//198 262//194 260//193
f 36//36 271//199 260//193 259//192
f 157//95 105//95 104//94 154//94
f 257//94 261//93 101//93 103//94
f 104//94 102//93 152//93 154//94
f 261//93 263//92 100//92 101//93
f 102//93 99//92 151//92 152//93
f 151//92 99//92 98//91 148//91
f 265//91 267//90 96//90 97//91
f 98//91 95//90 147//90 148//91
f 96//90 267//90 269//89 93//89
f 147//90 95//90 94//89 144//89
f 90//85 135//84 136//84 92//85
f 143//87 91//87 92//85 139//85
f 85//85 84//84 135//84 90//85
f 88//88 47//47 49//49 83//83
f 53//53 50//50 46//46 45//45
f 48//48 77//77 45//45
f 44//44 47//47 88//88 268//197
f 266//196 42//42 44//44 268//197
f 48//48 41//41 40//40
f 38//38 78//78 40//40
f 43//43 42//42 266//196 264//195
f 35//35 39//39 270//198 271//199
f 79//79 78//78 38//38 34//34
f 35//35 271//199 36//36
f 79//79 34//34 33//33
f 258//191 37//37 36//36 259//192
f 72//72 73//73 79//79 33//33
f 30//30 72//72 33//33
f 32//32 272//200 71//71 29//29
f 31//31 37//37 27//27
f 72//72 30//30 29//29
f 254//97 26//26 28//28 255//96
f 32//32 25//25 23//23
f 24//24 26//26 254//97 253//98
f 21//21 272//200 32//32 23//23
f 252//99 22//22 24//24 253//98
f 251//100 20//20 22//22 252//99
f 71//71 272//200 19//19 17//17
f 80//80 70//70 71//71 17//17
f 18//18 20//20 251//100 250//101
f 15//15 80//80 17//17
f 249//102 16//16 18//18 250//101
f 67//67 80//80 15//15 14//14
f 62//62 63//63 67//67 14//14
f 13//13 62//62 14//14
f 124//10 10//10 12//12 121//12
f 7//7 64//64 13//13 9//9
f 126//8 8//8 10//10 124//10
f 2//2 61//61 60//60 5//5
f 130//3 3//3 6//6 127//6
f 86//86 81//81 1//1 4//4
f 56//56 61//61 2//2 1//1
f 60//60 64//64 7//7 5//5
f 11//11 16//16 249//102 12//12
f 51//51 52//52 81//81 82//82
f 76//76 74//74 65//65 57//57
f 54//54 76//76 57//57
f 19//19 272//200 21//21
f 268//197 88//88 87//87 269//89
f 270//198 39//39 43//43
f 27//27 37//37 258//191 28//28
f 4//4 3//3 130//3 131//4
f 6//6 8//8 126//8 127//6
f 12//12 249//102 120//102 121//12
f 84//84 86//86 134//86 135//84
f 116//100 251//100 252//99 114//99
f 269//89 87//87 89//87 93//89
f 100//92 263//92 265//91 97//91
f 255//96 256//95 106//95 107//96
f 132//4 129//3 245//3 243//4
f 246//6 181//8 180//128 184//131
f 122//12 119//102 175//102 176//12
f 138//84 137//86 191//138 140//103
f 224//171 237//184 242//189 228//175
f 225//172 224//171 228//175
f 238//185 170//123 167//122 166//121
f 94//89 91//87 143//87 144//89
f 209//156 150//109 149//108 203//150
f 248//96 157//95 156//112 160//115
